<svg xmlns="http://www.w3.org/2000/svg" width="125.5" height="170.888" viewBox="0 0 125.5 170.888">
  <g id="_041-security" data-name="041-security" transform="translate(-67.993)">
    <path id="Path_16528" data-name="Path 16528" d="M153.1,128.355c44.9-16.471,51.661-62.512,49.358-86.764a7.12,7.12,0,0,0-7.83-6.417,65.13,65.13,0,0,1-40.034-8.952,10.057,10.057,0,0,0-10.2,0,65.129,65.129,0,0,1-40.034,8.952,7.091,7.091,0,0,0-7.82,6.327c-2.328,24.227,4.393,70.363,49.35,86.855a10.482,10.482,0,0,0,7.213,0Z" transform="translate(-18.749 -16.545)" fill="#f5ea72"/>
    <path id="Path_16529" data-name="Path 16529" d="M209.368,221.994l6.583-6.583a16.855,16.855,0,0,0,.395-23.574,16.677,16.677,0,0,0-23.784-.2l-5,5a2.509,2.509,0,0,1-3.548,0l-5-5a16.677,16.677,0,0,0-23.784.2,16.854,16.854,0,0,0,.395,23.574l6.583,6.583-1.852,1.852a73.791,73.791,0,0,0,21.829,12.383,10.488,10.488,0,0,0,7.214,0,73.79,73.79,0,0,0,21.829-12.383Z" transform="translate(-55.041 -124.418)" fill="#fff"/>
    <path id="Path_16530" data-name="Path 16530" d="M223.074,233.846a19.994,19.994,0,0,0-18.937-13.653H175.9a19.993,19.993,0,0,0-18.937,13.653,17.076,17.076,0,0,0,2.887,3.846l6.583,6.583-1.852,1.852a73.8,73.8,0,0,0,21.829,12.383,10.488,10.488,0,0,0,7.214,0,73.789,73.789,0,0,0,21.829-12.383l-1.852-1.852,6.583-6.583A17.079,17.079,0,0,0,223.074,233.846Z" transform="translate(-59.277 -146.7)" fill="#efedff"/>
    <path id="Path_16531" data-name="Path 16531" d="M88.2,91.249C97.575,96.1,103.51,93.8,100.55,86.06,86,67.391,83.619,43.168,85.06,28.174a6.447,6.447,0,0,1,7.11-5.751,59.21,59.21,0,0,0,36.4-8.138,9.144,9.144,0,0,1,9.275,0,59.211,59.211,0,0,0,36.4,8.138,6.473,6.473,0,0,1,7.118,5.834c1.424,15-.97,39.168-15.5,57.8C162.9,93.8,168.832,96.1,178.208,91.249a82.889,82.889,0,0,0,8.8-15.831c8.775-20.766,8.037-40.759,7.312-48.391A19.434,19.434,0,0,0,172.909,9.469a45.928,45.928,0,0,1-28.46-6.4,22.167,22.167,0,0,0-22.492,0,45.929,45.929,0,0,1-28.46,6.4,19.406,19.406,0,0,0-21.4,17.46c-.733,7.632-1.492,27.627,7.275,48.422A82.917,82.917,0,0,0,88.2,91.249Z" transform="translate(-2.46 0)" fill="#8ee2e1"/>
    <path id="Path_16532" data-name="Path 16532" d="M211.169,263.034a29.489,29.489,0,0,0-9.106-1.453h-2.157a19.778,19.778,0,0,0-1.088-3.736,64.672,64.672,0,0,1-29.374,21.077,9.53,9.53,0,0,1-6.557,0,64.675,64.675,0,0,1-29.374-21.077,19.777,19.777,0,0,0-1.088,3.736h-2.157a29.484,29.484,0,0,0-9.106,1.453A77.86,77.86,0,0,0,158.4,291.147a22.555,22.555,0,0,0,15.526,0A77.869,77.869,0,0,0,211.169,263.034Z" transform="translate(-35.421 -171.785)" fill="#6ad7d4"/>
    <g id="Group_16020" data-name="Group 16020" transform="translate(67.993 83.808)">
      <path id="Path_16533" data-name="Path 16533" d="M222.684,251.1H194.45a9.645,9.645,0,0,0-9.645,9.645v14.948h47.524V260.744a9.645,9.645,0,0,0-9.645-9.645Z" transform="translate(-145.817 -251.099)" fill="#807bcf"/>
      <path id="Path_16534" data-name="Path 16534" d="M248.4,351.629l-7.737-36.483a19.181,19.181,0,0,0-18.764-15.2H158.427c-13.248,14-8.055,41.165,8.681,46.471H205.59a8.33,8.33,0,0,1,7.862,5.577l2.287,6.531a18.217,18.217,0,0,0,17.194,12.2A15.811,15.811,0,0,0,248.4,351.629Z" transform="translate(-123.25 -283.641)" fill="#a78cd6"/>
      <path id="Path_16535" data-name="Path 16535" d="M94.844,299.944a19.181,19.181,0,0,0-18.764,15.2l-7.737,36.483a15.811,15.811,0,0,0,15.467,19.092A18.218,18.218,0,0,0,101,358.523l2.287-6.531a8.331,8.331,0,0,1,7.862-5.577h.7c-11.246-6.021-13.066-32.739-8.681-46.471Z" transform="translate(-67.993 -283.641)" fill="#807bcf"/>
      <path id="Path_16536" data-name="Path 16536" d="M157.363,348.979h-4.05v-4.05a2.5,2.5,0,0,0-5.006,0v4.05h-4.05a2.5,2.5,0,1,0,0,5.006h4.05v4.05a2.5,2.5,0,0,0,5.006,0v-4.05h4.05a2.5,2.5,0,1,0,0-5.006Z" transform="translate(-117.135 -311.944)" fill="#f7ef87"/>
      <path id="Path_16537" data-name="Path 16537" d="M331.589,348.979h-4.05v-4.05a2.5,2.5,0,1,0-5.006,0v4.05h-4.05a2.5,2.5,0,1,0,0,5.006h4.05v4.05a2.5,2.5,0,0,0,5.006,0v-4.05h4.05a2.5,2.5,0,0,0,0-5.006Z" transform="translate(-233.211 -311.944)" fill="#fff"/>
      <path id="Path_16538" data-name="Path 16538" d="M247.564,367.066h-6.9a2.5,2.5,0,0,1,0-5.006h6.9a2.5,2.5,0,0,1,0,5.006Z" transform="translate(-181.362 -325.025)" fill="#8ee2e1"/>
    </g>
    <g id="Group_16023" data-name="Group 16023" transform="translate(91.409 34.129)">
      <g id="Group_16021" data-name="Group 16021" transform="translate(0 7.188)">
        <ellipse id="Ellipse_396" data-name="Ellipse 396" cx="10.602" cy="8.443" rx="10.602" ry="8.443" fill="#eda1ab"/>
        <ellipse id="Ellipse_397" data-name="Ellipse 397" cx="10.602" cy="8.443" rx="10.602" ry="8.443" transform="translate(57.466)" fill="#eda1ab"/>
      </g>
      <g id="Group_16022" data-name="Group 16022" transform="translate(14.277)">
        <path id="Path_16539" data-name="Path 16539" d="M183.428,113.7a2.5,2.5,0,0,1-2.5-2.5v-4.126a2.5,2.5,0,0,1,5.006,0v4.126A2.5,2.5,0,0,1,183.428,113.7Z" transform="translate(-180.925 -103.794)" fill="#565e75"/>
        <path id="Path_16540" data-name="Path 16540" d="M239.133,124.566A10.389,10.389,0,0,1,231.3,121a2.5,2.5,0,0,1,3.775-3.289,5.377,5.377,0,0,0,8.118,0A2.5,2.5,0,0,1,246.967,121,10.39,10.39,0,0,1,239.133,124.566Z" transform="translate(-214.076 -111.979)" fill="#565e75"/>
        <path id="Path_16541" data-name="Path 16541" d="M316.2,112.044a2.5,2.5,0,0,1-2.5-2.5,2.278,2.278,0,1,0-4.557,0,2.5,2.5,0,0,1-5.007,0,7.285,7.285,0,1,1,14.569,0A2.5,2.5,0,0,1,316.2,112.044Z" transform="translate(-263.013 -102.256)" fill="#565e75"/>
      </g>
    </g>
  </g>
</svg>
