<svg xmlns="http://www.w3.org/2000/svg" width="178.94" height="200.677" viewBox="0 0 178.94 200.677">
  <g id="_016-potion" data-name="016-potion" transform="translate(-16.621 4.66)">
    <path id="Path_16210" data-name="Path 16210" d="M225.991,31.506H174.014a8.749,8.749,0,0,0-8.728,9.359l1.375,19.679h66.683l1.375-19.679a8.749,8.749,0,0,0-8.728-9.359Z" transform="translate(-94.821 -19.444)" fill="#daa985"/>
    <path id="Path_16211" data-name="Path 16211" d="M191.557,31.506H174.014a8.749,8.749,0,0,0-8.728,9.359l1.375,19.679h31.573c-7.053-5.276-9.131-22.3-6.676-29.037Z" transform="translate(-94.821 -19.444)" fill="#d2896f"/>
    <path id="Path_16212" data-name="Path 16212" d="M86.788,197.072c19.8,19.264,50.346,19.264,76.179,9.517l55.467-5.332.007,0c-6.491-14.273-18.28-26.022-33.122-33.191a10.686,10.686,0,0,1-5.817-11.7l5.081-25.637H118.546l5.081,25.637a10.686,10.686,0,0,1-5.817,11.7,69.758,69.758,0,0,0-31.032,29.01Z" transform="translate(-46.383 -80.677)" fill="#efedff"/>
    <path id="Path_16213" data-name="Path 16213" d="M86.788,197.071c9.62,9.358,21.775,14.17,34.692,15.527a79.724,79.724,0,0,1,11.831-30.32c6.176-9.168,7.745-18.3,5.838-25.815a3.052,3.052,0,0,1,3.055-3.812c3.021.1,6.152.155,9.36.155,10.975,0,21.046-.659,28.92-1.4l4.1-20.68H118.546l5.081,25.637a10.686,10.686,0,0,1-5.817,11.7,69.757,69.757,0,0,0-31.032,29.01Z" transform="translate(-46.383 -80.675)" fill="#d4d4ff"/>
    <path id="Path_16214" data-name="Path 16214" d="M178.6,113.886a300.108,300.108,0,0,1-38.766-2.61,10.672,10.672,0,1,1,2.852-21.153A278.069,278.069,0,0,0,178.6,92.541a278.064,278.064,0,0,0,35.915-2.418,10.672,10.672,0,0,1,2.852,21.153A300.108,300.108,0,0,1,178.6,113.886Z" transform="translate(-73.42 -55.56)" fill="#efedff"/>
    <path id="Path_16215" data-name="Path 16215" d="M251.284,305.908l-55.467,5.332a141.45,141.45,0,0,0-36.664-10.946C128.6,326.246,134.1,369.6,179.323,381.345h46.143A24.807,24.807,0,0,0,246.1,370.4c7.328-10.952,10.717-24.456,10.717-39.064A61.2,61.2,0,0,0,251.284,305.908Z" transform="translate(-79.233 -185.327)" fill="#8ee2e1"/>
    <g id="Group_15944" data-name="Group 15944" transform="translate(11.621 43.315)">
      <path id="Path_16216" data-name="Path 16216" d="M114.019,298.147c-13.5-2.042-27.125-1.865-39.515,1.429a61.419,61.419,0,0,0-7.631,29.613c0,14.608,3.39,28.112,10.717,39.064A24.808,24.808,0,0,0,98.228,379.2H134.19C104.425,360.066,103.66,323.856,114.019,298.147Z" transform="translate(-45.721 -226.495)" fill="#6ad7d4"/>
      <path id="Path_16217" data-name="Path 16217" d="M340.881,300.7c8.166,16.535-27.549,18.606-55.1,6.147C301.767,295.276,333.676,286.113,340.881,300.7Z" transform="translate(-180.821 -224.253)" fill="#6ad7d4"/>
      <circle id="Ellipse_343" data-name="Ellipse 343" cx="9.288" cy="9.288" r="9.288" transform="translate(157.672 23.032) rotate(-45)" fill="#6ad7d4"/>
      <circle id="Ellipse_344" data-name="Ellipse 344" cx="7.062" cy="7.062" r="7.062" transform="translate(5 32.246)" fill="#6ad7d4"/>
    </g>
    <circle id="Ellipse_345" data-name="Ellipse 345" cx="4.722" cy="4.722" r="4.722" transform="translate(168.144 -4.66)" fill="#8ee2e1"/>
    <g id="Group_15947" data-name="Group 15947" transform="translate(62.179 149.714)">
      <g id="Group_15945" data-name="Group 15945" transform="translate(0 5.214)">
        <path id="Path_16218" data-name="Path 16218" d="M166.859,424.819c0,5.1-5.189,9.23-11.59,9.23s-11.59-4.132-11.59-9.23,5.189-9.23,11.59-9.23S166.859,419.721,166.859,424.819Z" transform="translate(-143.678 -411.409)" fill="#fff"/>
        <path id="Path_16219" data-name="Path 16219" d="M307.774,424.819c0,5.1,5.189,9.23,11.59,9.23s11.59-4.132,11.59-9.23-5.189-9.23-11.59-9.23S307.774,419.721,307.774,424.819Z" transform="translate(-244.95 -411.409)" fill="#fff"/>
        <path id="Path_16220" data-name="Path 16220" d="M250.281,410.99c0-5.775-4.184-6.318-9.345-6.318s-9.345.542-9.345,6.318,4.184,10.457,9.345,10.457S250.281,416.765,250.281,410.99Z" transform="translate(-197.934 -404.672)" fill="#565e75"/>
      </g>
      <g id="Group_15946" data-name="Group 15946" transform="translate(10.657)">
        <path id="Path_16221" data-name="Path 16221" d="M174.384,401.528a2.871,2.871,0,0,1-2.871-2.871v-4.733a2.871,2.871,0,1,1,5.743,0v4.733A2.871,2.871,0,0,1,174.384,401.528Z" transform="translate(-171.513 -391.053)" fill="#565e75"/>
        <path id="Path_16222" data-name="Path 16222" d="M328.359,401.528a2.871,2.871,0,0,1-2.871-2.871v-4.733a2.871,2.871,0,0,1,5.743,0v4.733A2.871,2.871,0,0,1,328.359,401.528Z" transform="translate(-266.539 -391.053)" fill="#565e75"/>
      </g>
    </g>
  </g>
</svg>
