<svg xmlns="http://www.w3.org/2000/svg" width="128.2" height="207.04" viewBox="0 0 128.2 207.04">
  <g id="Group_16053" data-name="Group 16053" transform="translate(195.567 19.074)">
    <g id="_002-poker_cards" data-name="002-poker cards" transform="translate(-143.732 133.641)">
      <path id="Path_16057" data-name="Path 16057" d="M72.9,98.534,55.367,81a3.56,3.56,0,0,1,0-5.034l24.7-24.7a3.56,3.56,0,0,1,5.034,0L102.632,68.8a3.56,3.56,0,0,1,0,5.034l-24.7,24.7A3.56,3.56,0,0,1,72.9,98.534Z" transform="translate(-48.466 -45.252)" fill="#d4d4ff"/>
      <path id="Path_16058" data-name="Path 16058" d="M84.268,83.744V50.655a3.561,3.561,0,0,0-4.2.618l-24.7,24.7a3.56,3.56,0,0,0,0,5.034L65.553,91.192H76.821A7.456,7.456,0,0,0,84.268,83.744Z" transform="translate(-48.466 -45.256)" fill="#9ea2e3"/>
      <path id="Path_16059" data-name="Path 16059" d="M310.64,191.376l-2.586,8.229,2.586,8.229a3.509,3.509,0,0,0,2.017-2.476l2.1-9.806A3.509,3.509,0,0,0,310.64,191.376Z" transform="translate(-274.837 -171.121)" fill="#de5c6e"/>
      <path id="Path_16060" data-name="Path 16060" d="M210.126,208.407V191.949l-.052.009-9.806,2.1a3.51,3.51,0,0,0-2.7,2.7l-2.1,9.806a3.51,3.51,0,0,0,4.166,4.166l9.806-2.1A3.5,3.5,0,0,0,210.126,208.407Z" transform="translate(-174.323 -171.693)" fill="#d5364c"/>
      <path id="Path_16061" data-name="Path 16061" d="M28.355,46.146H3.56A3.56,3.56,0,0,1,0,42.586V7.658A3.56,3.56,0,0,1,3.56,4.1h24.8a3.56,3.56,0,0,1,3.56,3.56V42.586A3.56,3.56,0,0,1,28.355,46.146Z" transform="translate(0 -4.098)" fill="#efedff"/>
      <path id="Path_16062" data-name="Path 16062" d="M79.752,135.41a.361.361,0,0,1-.324-.44,4.473,4.473,0,1,0-8.725,0,.361.361,0,0,1-.324.44,4.472,4.472,0,1,0,2.256,8.5.161.161,0,0,1,.231.147,12.472,12.472,0,0,1-.565,3.756.9.9,0,0,0,.848,1.2h3.835a.9.9,0,0,0,.848-1.2,12.472,12.472,0,0,1-.565-3.756.161.161,0,0,1,.231-.147,4.472,4.472,0,1,0,2.256-8.5Z" transform="translate(-59.108 -115.988)" fill="#6171a3"/>
      <g id="Group_15911" data-name="Group 15911" transform="translate(3.25 4.547)">
        <g id="Group_15909" data-name="Group 15909" transform="translate(0 2.322)">
          <ellipse id="Ellipse_310" data-name="Ellipse 310" cx="3.425" cy="2.728" rx="3.425" ry="2.728" fill="#eda1ab"/>
          <ellipse id="Ellipse_311" data-name="Ellipse 311" cx="3.425" cy="2.728" rx="3.425" ry="2.728" transform="translate(18.565)" fill="#eda1ab"/>
        </g>
        <g id="Group_15910" data-name="Group 15910" transform="translate(4.613)">
          <path id="Path_16063" data-name="Path 16063" d="M73.722,51.527a.809.809,0,0,1-.809-.809V49.386a.809.809,0,0,1,1.617,0v1.333A.809.809,0,0,1,73.722,51.527Z" transform="translate(-72.913 -48.328)" fill="#565e75"/>
          <path id="Path_16064" data-name="Path 16064" d="M125.4,63.357a3.356,3.356,0,0,1-2.531-1.153.809.809,0,0,1,1.219-1.063,1.737,1.737,0,0,0,2.623,0,.809.809,0,0,1,1.219,1.063A3.357,3.357,0,0,1,125.4,63.357Z" transform="translate(-117.307 -59.29)" fill="#565e75"/>
          <path id="Path_16065" data-name="Path 16065" d="M200.021,49.431a.809.809,0,0,1-.809-.809.736.736,0,0,0-1.472,0,.809.809,0,1,1-1.617,0,2.353,2.353,0,1,1,4.707,0A.809.809,0,0,1,200.021,49.431Z" transform="translate(-182.837 -46.269)" fill="#565e75"/>
        </g>
      </g>
    </g>
    <g id="_003-sword" data-name="003-sword" transform="translate(-195.567 48.655)">
      <path id="Path_16066" data-name="Path 16066" d="M200.444,12.946,200.4,3.338a3.307,3.307,0,0,0-3.29-3.29L187.5,0a5.288,5.288,0,0,0-4.635,2.7l-8.7,15.469,8.12,8.12,15.469-8.7a5.288,5.288,0,0,0,2.7-4.635Z" transform="translate(-160.61 0)" fill="#8ee2e1"/>
      <path id="Path_16067" data-name="Path 16067" d="M188.881.007,187.5,0a5.288,5.288,0,0,0-4.635,2.7l-8.7,15.469,8.12,8.12,5.278-2.969c-8.232-4.386-3.7-18.334,1.323-23.308Z" transform="translate(-160.61 0)" fill="#6ad7d4"/>
      <path id="Path_16068" data-name="Path 16068" d="M274.937,172.876a.584.584,0,0,1-.413-1l4.3-4.3a.583.583,0,0,1,.825.825l-4.3,4.3A.582.582,0,0,1,274.937,172.876Z" transform="translate(-253.008 -154.386)" fill="#6ad7d4"/>
      <path id="Path_16069" data-name="Path 16069" d="M0,0H6.946V10.27H0Z" transform="translate(11.038 23.884) rotate(45)" fill="#a78cd6"/>
      <path id="Path_16070" data-name="Path 16070" d="M109.493,307.023l-2.73,2.73c.814.9,1.621,1.735,2.4,2.513s1.611,1.585,2.513,2.4l2.73-2.73Z" transform="translate(-98.457 -283.136)" fill="#807bcf"/>
      <path id="Path_16071" data-name="Path 16071" d="M8.34,398.446c1.742-1.742,1.6-3.043-1.25-5.9s-4.155-2.992-5.9-1.25-1.555,4.755.419,6.728S6.6,400.189,8.34,398.446Z" transform="translate(0.001 -359.805)" fill="#f5ea72"/>
      <path id="Path_16072" data-name="Path 16072" d="M63.949,148.646a40.162,40.162,0,0,1-7.887-10.417,4.469,4.469,0,1,1,7.985-4.016,31.433,31.433,0,0,0,6.222,8.113,31.431,31.431,0,0,0,8.113,6.222,4.469,4.469,0,0,1-4.016,7.985A40.161,40.161,0,0,1,63.949,148.646Z" transform="translate(-51.26 -121.5)" fill="#d4d4ff"/>
      <g id="Group_15914" data-name="Group 15914" transform="translate(21.877 2.754)">
        <g id="Group_15912" data-name="Group 15912" transform="translate(0)">
          <ellipse id="Ellipse_312" data-name="Ellipse 312" cx="1.899" cy="2.385" rx="1.899" ry="2.385" transform="translate(0 2.685) rotate(-44.96)" fill="#fff"/>
          <ellipse id="Ellipse_313" data-name="Ellipse 313" cx="1.899" cy="2.385" rx="1.899" ry="2.385" transform="translate(9.14 11.832) rotate(-44.96)" fill="#fff"/>
        </g>
        <g id="Group_15913" data-name="Group 15913" transform="translate(4.722 1.47)">
          <path id="Path_16073" data-name="Path 16073" d="M342.46,56.125a.584.584,0,0,1-.412-1l.674-.673a.583.583,0,1,1,.824.826l-.674.673A.582.582,0,0,1,342.46,56.125Z" transform="translate(-341.876 -54.285)" fill="#565e75"/>
          <path id="Path_16074" data-name="Path 16074" d="M434.593,148.437a.584.584,0,0,1-.412-1l.674-.673a.584.584,0,1,1,.825.826l-.674.673A.582.582,0,0,1,434.593,148.437Z" transform="translate(-426.841 -139.415)" fill="#565e75"/>
          <path id="Path_16075" data-name="Path 16075" d="M374.425,103.817a.582.582,0,0,1-.413-.171l-1.89-1.893a.584.584,0,0,1,.826-.824l1.89,1.893a.583.583,0,0,1-.413,1Z" transform="translate(-369.611 -97.142)" fill="#565e75"/>
        </g>
      </g>
    </g>
    <g id="_005-money_bag" data-name="005-money bag" transform="translate(-109.68 -19.074)">
      <path id="Path_16086" data-name="Path 16086" d="M264.926,126.53a2.537,2.537,0,1,1,2.767-4.253,14.819,14.819,0,0,0,8.607,1.767,2.537,2.537,0,0,1,.354,5.062A19.666,19.666,0,0,1,264.926,126.53Z" transform="translate(-241.973 -113.67)" fill="#d2896f"/>
      <path id="Path_16087" data-name="Path 16087" d="M176.366,34.715a23.945,23.945,0,0,1,2.39-8.671,2.224,2.224,0,0,0-1.24-3.145,5.119,5.119,0,0,0-5.179,1.473,1.341,1.341,0,0,1-1.895,0,5.119,5.119,0,0,0-5.179-1.473,2.224,2.224,0,0,0-1.24,3.145,23.946,23.946,0,0,1,2.39,8.671Z" transform="translate(-150.232 -22.685)" fill="#f5ea72"/>
      <path id="Path_16088" data-name="Path 16088" d="M176.366,34.715a23.945,23.945,0,0,1,2.39-8.671,2.224,2.224,0,0,0-1.24-3.145,5.119,5.119,0,0,0-5.179,1.473,1.341,1.341,0,0,1-1.895,0,5.119,5.119,0,0,0-5.179-1.473,2.224,2.224,0,0,0-1.24,3.145,23.946,23.946,0,0,1,2.39,8.671Z" transform="translate(-150.232 -22.685)" fill="#f5ea72"/>
      <path id="Path_16089" data-name="Path 16089" d="M185.5,78.976a20.055,20.055,0,0,1-8.861,0,5.468,5.468,0,0,0-2.32-.154,23.677,23.677,0,0,1,1.774,7.336h9.954a23.674,23.674,0,0,1,1.774-7.336A5.467,5.467,0,0,0,185.5,78.976Z" transform="translate(-159.91 -74.128)" fill="#ebca5f"/>
      <path id="Path_16090" data-name="Path 16090" d="M30.055,174.066c6.77,0,12.258-3.953,12.258-8.829,0-14.452-15.723-9.786-15.723-19.571H15.723C15.723,155.451,0,150.785,0,165.237c0,4.876,5.488,8.829,12.258,8.829Z" transform="translate(0 -135.502)" fill="#f5ea72"/>
      <path id="Path_16091" data-name="Path 16091" d="M26.59,145.666H15.723C15.723,155.451,0,150.785,0,165.237c0,4.876,5.488,8.829,12.258,8.829h6.783c-12.264-3.2-7.376-15.293-2.433-21.86a1.327,1.327,0,0,1,1.2-.523,31.743,31.743,0,0,0,3.345.2,32.206,32.206,0,0,0,7.472-.923c.142-.041.28-.088.416-.139A6.1,6.1,0,0,1,26.59,145.666Z" transform="translate(0 -135.502)" fill="#ebca5f"/>
      <path id="Path_16092" data-name="Path 16092" d="M161.768,120.6a29.222,29.222,0,0,1-6.651-.808,2.537,2.537,0,1,1,1.4-4.878,22.879,22.879,0,0,0,10.5,0,2.537,2.537,0,1,1,1.4,4.878A29.222,29.222,0,0,1,161.768,120.6Z" transform="translate(-140.611 -107.2)" fill="#daa985"/>
      <path id="Path_16093" data-name="Path 16093" d="M182.563,337.776l6.069,2,6.069-2a1.679,1.679,0,0,0-.493-1.162l-1.454-1.453a2.215,2.215,0,0,0-1.565-.648h-5.112a2.215,2.215,0,0,0-1.565.648l-1.454,1.453A1.679,1.679,0,0,0,182.563,337.776Z" transform="translate(-167.475 -308.743)" fill="#8ee2e1"/>
      <path id="Path_16094" data-name="Path 16094" d="M182.56,374a1.679,1.679,0,0,0,.464,1.191l4.385,4.606a1.684,1.684,0,0,0,2.44,0l4.385-4.606A1.679,1.679,0,0,0,194.7,374Z" transform="translate(-167.473 -344.964)" fill="#6ad7d4"/>
      <g id="Group_15917" data-name="Group 15917" transform="translate(11.874 18.117)">
        <g id="Group_15915" data-name="Group 15915" transform="translate(0 1.126)">
          <path id="Path_16095" data-name="Path 16095" d="M148.682,268.428a2.567,2.567,0,1,1-2.5-1.992A2.291,2.291,0,0,1,148.682,268.428Z" transform="translate(-143.678 -265.534)" fill="#eda1ab"/>
          <path id="Path_16096" data-name="Path 16096" d="M307.774,268.428a2.567,2.567,0,1,0,2.5-1.992A2.291,2.291,0,0,0,307.774,268.428Z" transform="translate(-294.213 -265.534)" fill="#eda1ab"/>
          <path id="Path_16097" data-name="Path 16097" d="M235.625,256.883c0-1.247-.9-1.364-2.017-1.364s-2.017.117-2.017,1.364a2.03,2.03,0,1,0,4.034,0Z" transform="translate(-224.326 -255.519)" fill="#565e75"/>
        </g>
        <g id="Group_15916" data-name="Group 15916" transform="translate(2.3)">
          <path id="Path_16098" data-name="Path 16098" d="M172.133,244.161a.62.62,0,0,1-.62-.62V242.52a.62.62,0,1,1,1.24,0v1.022A.62.62,0,0,1,172.133,244.161Z" transform="translate(-171.513 -241.9)" fill="#565e75"/>
          <path id="Path_16099" data-name="Path 16099" d="M326.107,244.161a.62.62,0,0,1-.62-.62V242.52a.62.62,0,1,1,1.24,0v1.022A.62.62,0,0,1,326.107,244.161Z" transform="translate(-312.762 -241.9)" fill="#565e75"/>
        </g>
      </g>
    </g>
  </g>
</svg>
