<svg xmlns="http://www.w3.org/2000/svg" width="1059.756" height="220.544" viewBox="0 0 1059.756 220.544">
  <g id="Group_14492" data-name="Group 14492" transform="translate(455.27 -396.647)">
    <g id="Group_14426" data-name="Group 14426" transform="translate(509.305 561.617)">
      <g id="Group_14421" data-name="Group 14421" transform="translate(0 26.429)">
        <g id="Group_14420" data-name="Group 14420">
          <path id="Path_13692" data-name="Path 13692" d="M509.3,814.186v-5.132l13.1,8.485,13.1-8.485,13.088,8.485,13.1-8.485,13.1,8.485,11.919-7.722,2.347,3.607-14.266,9.236-13.1-8.474-13.1,8.474L535.5,814.186l-13.1,8.474Z" transform="translate(-509.305 -809.054)" fill="#fff"/>
        </g>
      </g>
      <g id="Group_14423" data-name="Group 14423" transform="translate(0 13.088)">
        <g id="Group_14422" data-name="Group 14422">
          <path id="Path_13693" data-name="Path 13693" d="M509.3,800.844v-5.132l13.1,8.485,13.1-8.485,13.088,8.485,13.1-8.485,13.1,8.485,11.919-7.733,2.347,3.617-14.266,9.236-13.1-8.474-13.1,8.474L535.5,800.844l-13.1,8.474Z" transform="translate(-509.305 -795.713)" fill="#fff"/>
        </g>
      </g>
      <g id="Group_14425" data-name="Group 14425">
        <g id="Group_14424" data-name="Group 14424">
          <path id="Path_13694" data-name="Path 13694" d="M509.3,787.756v-5.131l13.1,8.485,13.1-8.485,13.088,8.485,13.1-8.485,13.1,8.485,11.919-7.723,2.347,3.607-14.266,9.247-13.1-8.485-13.1,8.485L535.5,787.756l-13.1,8.485Z" transform="translate(-509.305 -782.625)" fill="#fff"/>
        </g>
      </g>
    </g>
    <g id="Group_14438" data-name="Group 14438" transform="translate(511.271 522.384) rotate(-39)">
      <g id="Group_14437" data-name="Group 14437" transform="translate(9.78)">
        <g id="Group_14427" data-name="Group 14427" transform="translate(0 0.892)">
          <path id="Path_13695" data-name="Path 13695" d="M484.6,440.553a.479.479,0,0,0-.082-.461,14.13,14.13,0,0,0-10.011-5.888c-1.649-.156-3.552.144-4.43,1.725a4.9,4.9,0,0,0,.163,4.281,4.206,4.206,0,0,0,.344,8.327,4.1,4.1,0,0,0-.2,3.714,4.292,4.292,0,0,0,3.609,1.789,12.673,12.673,0,0,0,9.455-3.493c.662-.631,1.554-1.368,1.572-2.324.016-.87-.1-1.766-.145-2.635Z" transform="translate(-466.78 -434.167)" fill="#282f39"/>
          <path id="Path_13696" data-name="Path 13696" d="M522.927,441.8a4.941,4.941,0,0,0,.447-4.191c-.755-1.683-2.658-2.119-4.346-2.061a14.133,14.133,0,0,0-10.347,5.275.48.48,0,0,0-.109.455q-.282,2.444-.565,4.888c-.1.889-.27,1.8-.311,2.692-.045.991.772,1.764,1.424,2.466a12.724,12.724,0,0,0,9.033,4.052,4.475,4.475,0,0,0,3.8-1.426,4,4,0,0,0,.13-3.859,4.206,4.206,0,0,0,.846-8.291Z" transform="translate(-466.78 -434.167)" fill="#282f39"/>
        </g>
        <path id="Path_13697" data-name="Path 13697" d="M510.472,439.468c-3.136-4.826-9.9-6.389-15.3-6.173-5.2.208-11.3,2.731-13.511,7.785-2.751,6.292,3.123,11.838,8.478,13.971,5.6,2.049,12.251,1.643,17.172-1.889C511.663,450.039,513.562,444.226,510.472,439.468Z" transform="translate(-466.78 -433.276)" fill="#ff6a12"/>
        <g id="Group_14428" data-name="Group 14428" transform="translate(15.555 0.044)">
          <path id="Path_13698" data-name="Path 13698" d="M493.328,433.464a19.373,19.373,0,0,0-3.53.838,46.219,46.219,0,0,0-3.395,5.334,51.976,51.976,0,0,0-4.068,9.2,12.294,12.294,0,0,0,1.173,1.591c1.434-3.21,2.715-6.486,4.463-9.563A42.756,42.756,0,0,1,493.328,433.464Z" transform="translate(-482.335 -433.32)" fill="#282f39"/>
          <path id="Path_13699" data-name="Path 13699" d="M500.089,433.593a24.57,24.57,0,0,0-2.475-.273,81.262,81.262,0,0,0-5.682,8.857,68.813,68.813,0,0,0-4.912,11.256c.368.237.742.462,1.119.67a99.711,99.711,0,0,1,5.456-10.885A81.194,81.194,0,0,1,500.089,433.593Z" transform="translate(-482.335 -433.32)" fill="#282f39"/>
          <path id="Path_13700" data-name="Path 13700" d="M506.5,435.783a16,16,0,0,0-2.186-1.052,73.273,73.273,0,0,0-6.738,10.045,68.635,68.635,0,0,0-5.031,10.986c.556.129,1.119.234,1.684.316a93.583,93.583,0,0,1,5.145-10.177A86.444,86.444,0,0,1,506.5,435.783Z" transform="translate(-482.335 -433.32)" fill="#282f39"/>
          <path id="Path_13701" data-name="Path 13701" d="M510.472,439.468c-.075-.114-.153-.225-.231-.335a100.88,100.88,0,0,0-10.293,16.947c.592-.088,1.181-.2,1.761-.349A128.344,128.344,0,0,1,511.3,441.04,9.625,9.625,0,0,0,510.472,439.468Z" transform="translate(-482.335 -433.32)" fill="#282f39"/>
        </g>
        <g id="Group_14436" data-name="Group 14436" transform="translate(1.72 2.078)">
          <g id="Group_14429" data-name="Group 14429" transform="translate(0 7.465)">
            <path id="Path_13702" data-name="Path 13702" d="M468.511,443.46a4.457,4.457,0,0,0,.633,2.749.891.891,0,1,0,1.432-1.038,2.291,2.291,0,0,1-.695-1.669.686.686,0,0,0-1.37-.042Z" transform="translate(-468.5 -442.82)" fill="#fff"/>
          </g>
          <g id="Group_14430" data-name="Group 14430" transform="translate(3.186 0.593)">
            <path id="Path_13703" data-name="Path 13703" d="M472.824,437.844c.081-.051.162-.1.244-.15l-.188.072c.06-.007.121-.012.181-.022a1.306,1.306,0,0,0,.344-.131.891.891,0,1,0-1.038-1.432,1.568,1.568,0,0,0-.329.418l.287-.27-.239.161a.833.833,0,0,0-.367.45.771.771,0,0,0,1.105.9Z" transform="translate(-471.686 -435.947)" fill="#fff"/>
          </g>
          <g id="Group_14431" data-name="Group 14431" transform="translate(50.392 3.362)">
            <path id="Path_13704" data-name="Path 13704" d="M519.257,439.292a3.4,3.4,0,0,1-.318,1.343.783.783,0,1,0,1.5.461,3.226,3.226,0,0,0,.03-1.93.616.616,0,0,0-1.208.126Z" transform="translate(-518.892 -438.716)" fill="#fff"/>
          </g>
          <g id="Group_14432" data-name="Group 14432" transform="translate(54.01 9.792)">
            <path id="Path_13705" data-name="Path 13705" d="M523.107,445.458c-.155.322-.309.641-.481.954a.824.824,0,1,0,1.488.681c.06-.361.139-.717.218-1.074a.688.688,0,0,0-.369-.813.671.671,0,0,0-.856.252Z" transform="translate(-522.51 -445.146)" fill="#fff"/>
          </g>
          <g id="Group_14433" data-name="Group 14433" transform="translate(16.738 0.233)">
            <path id="Path_13706" data-name="Path 13706" d="M486.189,439.539a25.3,25.3,0,0,1,8.272-2.169c1-.123.829-1.837-.187-1.782a19.967,19.967,0,0,0-8.706,2.81.65.65,0,0,0,.621,1.141Z" transform="translate(-485.238 -435.587)" fill="#fff"/>
          </g>
          <g id="Group_14434" data-name="Group 14434" transform="translate(28.152)">
            <path id="Path_13707" data-name="Path 13707" d="M497.144,437.071a5.08,5.08,0,0,1,1.029.309l-.435-.272.042.051a1.083,1.083,0,0,0,1.855-.7,1.119,1.119,0,0,0-.5-.943,1.089,1.089,0,0,0-1.306.129l-.045.048.45-.245a5.12,5.12,0,0,1-1.046.247.721.721,0,0,0-.041,1.38Z" transform="translate(-496.652 -435.354)" fill="#fff"/>
          </g>
          <g id="Group_14435" data-name="Group 14435" transform="translate(31.53 14.325)">
            <path id="Path_13708" data-name="Path 13708" d="M500.333,454c2.541.486,5.544-.864,7.518-2.376.984-.753-.259-2.5-1.285-1.773a23.5,23.5,0,0,1-3.064,1.939c-1.057.525-2.219.837-3.25,1.4-.308.168-.308.738.081.813Z" transform="translate(-500.03 -449.679)" fill="#fff"/>
          </g>
        </g>
      </g>
    </g>
    <g id="Group_14447" data-name="Group 14447" transform="translate(357.42 573.448)">
      <g id="Group_14439" data-name="Group 14439">
        <path id="Path_13709" data-name="Path 13709" d="M372.95,758.013c-14.491-6.17-29.267-11.616-43.594-18.186a1.208,1.208,0,0,1,.916-2.235c14.669,5.777,28.838,12.657,43.331,18.829a.861.861,0,0,1-.653,1.592Z" transform="translate(-328.642 -737.497)" fill="#fff7c7"/>
      </g>
      <path id="Path_13710" data-name="Path 13710" d="M376.8,741.334a15.858,15.858,0,0,1,8.97,9.47,16.15,16.15,0,0,1-5.524,17.448,16.588,16.588,0,0,1-19.313.046c-5.488-4.137-6.718-12.622-4.061-18.656a16.074,16.074,0,0,1,14.06-9.458A14.707,14.707,0,0,1,376.8,741.334Z" transform="translate(-328.642 -737.497)" fill="#7a20a3"/>
      <g id="Group_14440" data-name="Group 14440" transform="translate(33.942 0.651)">
        <path id="Path_13711" data-name="Path 13711" d="M364.931,773.332l-.091.006a1.872,1.872,0,0,1-1.926-1.1c-.931-2.3.336-5.58.964-7.832.79-2.832,1.611-5.657,2.574-8.435.922-2.66,1.975-5.271,2.9-7.926.982-2.8,1.859-6.236,3.718-8.592,2.1-2.663,7.351-1.006,6.546,2.686-.679,3.112-2.647,5.944-4.08,8.772-1.314,2.592-2.432,5.3-3.558,7.977-1.137,2.7-2.311,5.39-3.4,8.113-.547,1.365-1.225,2.64-1.848,3.966-.392.837-.617,2.278-1.8,2.362Z" transform="translate(-362.583 -738.148)" fill="#9338be"/>
      </g>
      <g id="Group_14441" data-name="Group 14441" transform="translate(43.677 29.706)">
        <path id="Path_13712" data-name="Path 13712" d="M373.147,767.878c.012,0,.291-.076.293-.07q-.312.158-.1.037l.119-.071.515-.311a1.343,1.343,0,0,1,1.266-.167,1.256,1.256,0,0,1,.74.85,1.286,1.286,0,0,1-1.381,1.61l-.659-.048-.141-.01q-.1-.006.012,0l-.391.094a.971.971,0,0,1-1.092-.822,1,1,0,0,1,.823-1.092Z" transform="translate(-372.319 -767.203)" fill="#fff"/>
      </g>
      <g id="Group_14442" data-name="Group 14442" transform="translate(47.487 24.409)">
        <path id="Path_13713" data-name="Path 13713" d="M376.63,766.407a8.954,8.954,0,0,0,1.859-1.819c.527-.694.9-1.5,1.486-2.144a1.472,1.472,0,0,1,2.513,1.452c-.6,1.952-2.709,3.45-4.391,4.431-1.3.758-2.757-.967-1.467-1.92Z" transform="translate(-376.129 -761.906)" fill="#fff"/>
      </g>
      <g id="Group_14443" data-name="Group 14443" transform="translate(30.131 5.971)">
        <path id="Path_13714" data-name="Path 13714" d="M358.829,750.007a11.232,11.232,0,0,1,5.619-6.442c.977-.508,1.927,1.1.974,1.685a13.6,13.6,0,0,0-5.057,5.387.831.831,0,0,1-1.536-.63Z" transform="translate(-358.773 -743.467)" fill="#fff"/>
      </g>
      <g id="Group_14444" data-name="Group 14444" transform="translate(35.37 31.069)">
        <path id="Path_13715" data-name="Path 13715" d="M364.1,770.722c-.028-.332-.055-.663-.082-.995a1.026,1.026,0,1,1,2.036-.02q-.108.5-.218,1a.888.888,0,0,1-.861.764.871.871,0,0,1-.875-.747Z" transform="translate(-364.012 -768.566)" fill="#fff"/>
      </g>
      <g id="Group_14445" data-name="Group 14445" transform="translate(44.456 4.375)">
        <path id="Path_13716" data-name="Path 13716" d="M373.144,747.873l1.977-5.455c.4-1.1,2.165-.374,1.676.688l-2.424,5.271a.665.665,0,0,1-1.229-.5Z" transform="translate(-373.097 -741.872)" fill="#fff"/>
      </g>
      <g id="Group_14446" data-name="Group 14446" transform="translate(46.931 1.806)">
        <path id="Path_13717" data-name="Path 13717" d="M375.664,739.972a1.118,1.118,0,0,1,2.067.848,1.118,1.118,0,0,1-2.067-.848Z" transform="translate(-375.573 -739.303)" fill="#fff"/>
      </g>
    </g>
    <g id="Group_14454" data-name="Group 14454" transform="translate(408.586 402.816)">
      <g id="Group_14449" data-name="Group 14449" transform="translate(0 25.332)">
        <g id="Group_14448" data-name="Group 14448">
          <path id="Path_13718" data-name="Path 13718" d="M21.3,536.477v-4.919l12.554,8.133,12.554-8.133,12.544,8.133,12.554-8.133,12.554,8.133,11.424-7.4,2.25,3.457L84.066,544.6l-12.554-8.123L58.958,544.6l-12.544-8.123L33.859,544.6Z" transform="translate(-21.305 -531.558)" fill="#fff"/>
        </g>
      </g>
      <g id="Group_14451" data-name="Group 14451" transform="translate(0 12.545)">
        <g id="Group_14450" data-name="Group 14450">
          <path id="Path_13719" data-name="Path 13719" d="M21.3,523.689V518.77L33.859,526.9l12.554-8.132L58.958,526.9l12.554-8.132L84.066,526.9l11.424-7.412,2.25,3.467-13.674,8.853-12.554-8.123-12.554,8.123-12.544-8.123-12.554,8.123Z" transform="translate(-21.305 -518.77)" fill="#fff"/>
        </g>
      </g>
      <g id="Group_14453" data-name="Group 14453">
        <g id="Group_14452" data-name="Group 14452">
          <path id="Path_13720" data-name="Path 13720" d="M21.3,511.144v-4.918l12.554,8.133,12.554-8.133,12.544,8.133,12.554-8.133,12.554,8.133,11.424-7.4,2.25,3.457-13.674,8.863-12.554-8.133-12.554,8.133-12.544-8.133-12.554,8.133Z" transform="translate(-21.305 -506.226)" fill="#fff"/>
        </g>
      </g>
    </g>
    <path id="Path_13721" data-name="Path 13721" d="M211,464.189l-3.386,3.386-3.386-3.386a2.834,2.834,0,0,0-4.01,0h0a2.835,2.835,0,0,0,0,4.009l3.386,3.386-3.386,3.386a2.836,2.836,0,0,0,0,4.01h0a2.836,2.836,0,0,0,4.01,0l3.386-3.387L211,478.98a2.835,2.835,0,0,0,4.009,0h0a2.834,2.834,0,0,0,0-4.01l-3.386-3.386,3.386-3.386a2.833,2.833,0,0,0,0-4.009h0A2.833,2.833,0,0,0,211,464.189Z" transform="translate(45.862 -54.647)" fill="#fff"/>
    <path id="Path_14902" data-name="Path 14902" d="M204.228,464.189l3.386,3.386L211,464.189a2.834,2.834,0,0,1,4.01,0h0a2.835,2.835,0,0,1,0,4.009l-3.386,3.386,3.386,3.386a2.836,2.836,0,0,1,0,4.01h0a2.836,2.836,0,0,1-4.01,0l-3.386-3.387-3.386,3.387a2.835,2.835,0,0,1-4.009,0h0a2.834,2.834,0,0,1,0-4.01l3.386-3.386-3.386-3.386a2.833,2.833,0,0,1,0-4.009h0A2.833,2.833,0,0,1,204.228,464.189Z" transform="translate(-415.055 -59.832)" fill="#fff"/>
    <path id="Path_14908" data-name="Path 14908" d="M204.228,464.189l3.386,3.386L211,464.189a2.834,2.834,0,0,1,4.01,0h0a2.835,2.835,0,0,1,0,4.009l-3.386,3.386,3.386,3.386a2.836,2.836,0,0,1,0,4.01h0a2.836,2.836,0,0,1-4.01,0l-3.386-3.387-3.386,3.387a2.835,2.835,0,0,1-4.009,0h0a2.834,2.834,0,0,1,0-4.01l3.386-3.386-3.386-3.386a2.833,2.833,0,0,1,0-4.009h0A2.833,2.833,0,0,1,204.228,464.189Z" transform="translate(-610.055 137.381)" fill="#fff"/>
    <g id="Group_14456" data-name="Group 14456" transform="translate(332.684 478.875)">
      <g id="Group_14455" data-name="Group 14455">
        <path id="Path_13722" data-name="Path 13722" d="M253.488,664.159q-.338,0-.679-.022a10.263,10.263,0,0,1-9.452-10.333V651.07a3.628,3.628,0,0,0-3.624-3.624h-2.97a10.151,10.151,0,0,1-7.382-3.2,10.037,10.037,0,0,1-2.716-7.587A10.265,10.265,0,0,1,237,627.209h2.733a3.629,3.629,0,0,0,3.624-3.625v-2.97a10.154,10.154,0,0,1,3.2-7.383,10.03,10.03,0,0,1,7.585-2.714,10.264,10.264,0,0,1,9.453,10.334v2.733a3.629,3.629,0,0,0,3.624,3.625h2.734a10.264,10.264,0,0,1,10.333,9.45,10.037,10.037,0,0,1-2.715,7.588,10.153,10.153,0,0,1-7.382,3.2h-2.97a3.628,3.628,0,0,0-3.624,3.624v2.97a10.154,10.154,0,0,1-3.2,7.383A10.017,10.017,0,0,1,253.488,664.159ZM237,633.633a3.877,3.877,0,0,0-3.923,3.443,3.694,3.694,0,0,0,3.686,3.945h2.97a10.06,10.06,0,0,1,10.049,10.049V653.8a3.876,3.876,0,0,0,3.443,3.922,3.725,3.725,0,0,0,2.777-.99,3.662,3.662,0,0,0,1.168-2.7v-2.97a10.06,10.06,0,0,1,10.049-10.049h2.97a3.694,3.694,0,0,0,3.685-3.946,3.875,3.875,0,0,0-3.921-3.442h-2.734a10.06,10.06,0,0,1-10.049-10.049v-2.733a3.877,3.877,0,0,0-3.442-3.923,3.694,3.694,0,0,0-3.946,3.686v2.97a10.06,10.06,0,0,1-10.049,10.049Z" transform="translate(-226.643 -610.494)" fill="#fff"/>
      </g>
    </g>
    <g id="Group_14458" data-name="Group 14458" transform="translate(136.729 526.244)">
      <g id="Group_14457" data-name="Group 14457">
        <path id="Path_13723" data-name="Path 13723" d="M21.311,721.3c-.119,0-.239,0-.359-.012a5.426,5.426,0,0,1-5-5.463v-1.445a1.918,1.918,0,0,0-1.916-1.917h-1.57a5.367,5.367,0,0,1-3.9-1.691,5.31,5.31,0,0,1-1.436-4.011,5.428,5.428,0,0,1,5.464-5h1.445a1.918,1.918,0,0,0,1.916-1.917v-1.57a5.372,5.372,0,0,1,1.692-3.9,5.3,5.3,0,0,1,4.011-1.434,5.426,5.426,0,0,1,5,5.463v1.445a1.919,1.919,0,0,0,1.916,1.917h1.445a5.427,5.427,0,0,1,5.464,5,5.307,5.307,0,0,1-1.436,4.012,5.367,5.367,0,0,1-3.9,1.691h-1.57a1.919,1.919,0,0,0-1.916,1.917v1.57a5.372,5.372,0,0,1-1.692,3.9A5.3,5.3,0,0,1,21.311,721.3Zm-8.718-16.139a2.048,2.048,0,0,0-2.073,1.82,1.953,1.953,0,0,0,1.948,2.086h1.57a5.318,5.318,0,0,1,5.313,5.313v1.445a2.05,2.05,0,0,0,1.821,2.074,1.967,1.967,0,0,0,1.468-.524,1.934,1.934,0,0,0,.618-1.425v-1.57a5.318,5.318,0,0,1,5.313-5.313h1.57a1.955,1.955,0,0,0,1.949-2.087,2.049,2.049,0,0,0-2.074-1.819H28.571a5.319,5.319,0,0,1-5.313-5.314V698.4a2.05,2.05,0,0,0-1.82-2.074,1.955,1.955,0,0,0-2.087,1.949v1.57a5.319,5.319,0,0,1-5.313,5.314Z" transform="translate(-7.118 -692.928)" fill="#fff"/>
      </g>
    </g>
    <g id="Group_14708" data-name="Group 14708" transform="translate(16.431 465.865)">
      <g id="Group_14457-2" data-name="Group 14457" transform="translate(0)">
        <path id="Path_13723-2" data-name="Path 13723" d="M20.8,720.3c.115,0,.231,0,.346-.011a5.236,5.236,0,0,0,4.822-5.271v-1.394a1.851,1.851,0,0,1,1.849-1.849h1.515a5.178,5.178,0,0,0,3.766-1.631,5.123,5.123,0,0,0,1.385-3.87,5.237,5.237,0,0,0-5.272-4.821H27.816a1.851,1.851,0,0,1-1.849-1.85V698.09a5.183,5.183,0,0,0-1.632-3.767,5.118,5.118,0,0,0-3.87-1.383,5.235,5.235,0,0,0-4.822,5.271V699.6a1.851,1.851,0,0,1-1.849,1.85H12.4a5.236,5.236,0,0,0-5.272,4.82,5.12,5.12,0,0,0,1.385,3.871,5.178,5.178,0,0,0,3.766,1.631h1.515a1.851,1.851,0,0,1,1.849,1.849v1.515a5.183,5.183,0,0,0,1.632,3.767A5.108,5.108,0,0,0,20.8,720.3Zm8.411-15.571a1.976,1.976,0,0,1,2,1.756,1.884,1.884,0,0,1-1.879,2.013H27.816a5.131,5.131,0,0,0-5.126,5.126v1.394a1.978,1.978,0,0,1-1.757,2,1.9,1.9,0,0,1-1.416-.506,1.866,1.866,0,0,1-.6-1.375v-1.515a5.131,5.131,0,0,0-5.126-5.126H12.28a1.886,1.886,0,0,1-1.88-2.014,1.977,1.977,0,0,1,2-1.755h1.394a5.132,5.132,0,0,0,5.126-5.127V698.21a1.978,1.978,0,0,1,1.756-2,1.886,1.886,0,0,1,2.014,1.88V699.6a5.132,5.132,0,0,0,5.126,5.127Z" transform="translate(-7.118 -692.928)" fill="#fff"/>
      </g>
    </g>
    <path id="Path_13724" data-name="Path 13724" d="M200.711,587.782c-4.054-1.7-6.707,4.594-2.647,6.3S204.771,589.488,200.711,587.782Z" transform="translate(63.394 -117.442)" fill="#fff"/>
    <path id="Path_14906" data-name="Path 14906" d="M198.064,587.782c4.054-1.7,6.707,4.594,2.647,6.3S194,589.488,198.064,587.782Z" transform="translate(-165.921 -190.845)" fill="#fff"/>
    <path id="Path_13725" data-name="Path 13725" d="M375.021,411.559a3.221,3.221,0,0,0-.642.6,2.248,2.248,0,0,0-.505,1.066,2.2,2.2,0,0,0-.1,1.149,3.313,3.313,0,0,0,1.1,1.937,2.986,2.986,0,0,0,1.449.608,2.955,2.955,0,0,0,2.743-4.706A2.977,2.977,0,0,0,375.021,411.559Z" transform="translate(-44.014 -8.226)" fill="#fff"/>
    <path id="Path_13726" data-name="Path 13726" d="M343.469,813.426a3.171,3.171,0,0,0-.642.6,2.234,2.234,0,0,0-.505,1.066,2.2,2.2,0,0,0-.1,1.149,3.3,3.3,0,0,0,1.1,1.936,2.97,2.97,0,0,0,1.449.609,2.956,2.956,0,0,0,2.743-4.707A2.978,2.978,0,0,0,343.469,813.426Z" transform="translate(190.119 -379.46)" fill="#fff"/>
    <path id="Path_13727" data-name="Path 13727" d="M145.958,647.952a3.032,3.032,0,0,0-2.971.368,3.009,3.009,0,0,0-1.175,2.8c.007.1.047.193.064.29a2.714,2.714,0,0,0,.352,1.226,2.56,2.56,0,0,0,1.275,1.16,3.183,3.183,0,0,0,1.39.187,2.455,2.455,0,0,0,1.281-.56,2.923,2.923,0,0,0,.425-.292,3.009,3.009,0,0,0,1.175-2.8A3.031,3.031,0,0,0,145.958,647.952Z" transform="translate(-59 -67.129)" fill="#fff"/>
    <path id="Path_13728" data-name="Path 13728" d="M257.633,737.593c-3.608-1.516-5.97,4.088-2.356,5.606S261.246,739.111,257.633,737.593Z" transform="translate(0 -177.84)" fill="#fff"/>
    <path id="Path_14907" data-name="Path 14907" d="M255.277,737.593c3.608-1.516,5.97,4.088,2.356,5.606S251.664,739.111,255.277,737.593Z" transform="translate(-286.874 -142.718)" fill="#fff"/>
    <path id="Path_13729" data-name="Path 13729" d="M430.505,765.762c-3.608-1.515-5.97,4.089-2.356,5.607S434.118,767.281,430.505,765.762Z" transform="translate(26 -218.779)" fill="#fff"/>
    <path id="Path_14903" data-name="Path 14903" d="M428.149,765.762c3.608-1.515,5.97,4.089,2.356,5.607S424.536,767.281,428.149,765.762Z" transform="translate(-881.618 -192.057)" fill="#fff"/>
    <path id="Path_13731" data-name="Path 13731" d="M427.525,428.7c-3.607-1.516-5.969,4.088-2.355,5.607S431.139,430.215,427.525,428.7Z" transform="translate(20.456 50.435)" fill="#fff"/>
    <path id="Path_14904" data-name="Path 14904" d="M425.17,428.7c3.607-1.516,5.969,4.088,2.355,5.607S421.556,430.215,425.17,428.7Z" transform="translate(-856.618 -23.914)" fill="#fff"/>
    <path id="Path_13732" data-name="Path 13732" d="M185.356,806.515c-3.608-1.516-5.97,4.089-2.356,5.607S188.969,808.033,185.356,806.515Z" transform="translate(0 -221.008)" fill="#fff"/>
    <g id="Group_14483" data-name="Group 14483" transform="translate(544.798 396.69)">
      <g id="Group_14466" data-name="Group 14466" transform="translate(0 0.058)">
        <path id="Path_13733" data-name="Path 13733" d="M313.977,417.681c-1.383-1.714-3.5-3.371-5.686-2.409a3.68,3.68,0,0,0-1.94,4.333c-1.318-1.424-4-1.169-5.377.512s-1.152,4.4.463,5.462a3.368,3.368,0,0,0-2.638,3.345,3.968,3.968,0,0,0,2.307,3.378,32.593,32.593,0,0,0,12.383,2.332l5.612-7.647A31.115,31.115,0,0,0,313.977,417.681Z" transform="translate(-298.798 -414.988)" fill="#54ba2f"/>
        <path id="Path_13734" data-name="Path 13734" d="M354.459,447.386c2.05.805,4.267,2.33,4,4.7a3.681,3.681,0,0,1-3.552,3.151c1.754.83,2.314,3.46,1.125,5.283s-3.851,2.419-5.35,1.2a3.368,3.368,0,0,1-2.4,3.52,3.971,3.971,0,0,1-3.916-1.188,32.628,32.628,0,0,1-5.94-11.112l5.612-7.647A31.074,31.074,0,0,1,354.459,447.386Z" transform="translate(-298.798 -414.988)" fill="#54ba2f"/>
        <g id="Group_14465" data-name="Group 14465" transform="translate(5.905 6.215)">
          <g id="Group_14459" data-name="Group 14459" transform="translate(38.922 33.9)">
            <path id="Path_13735" data-name="Path 13735" d="M344.174,458.018c1.512,1.109,3.458-1.537,1.943-2.648s-3.458,1.536-1.943,2.648Z" transform="translate(-343.626 -455.104)" fill="#282f39"/>
          </g>
          <g id="Group_14460" data-name="Group 14460" transform="translate(45.435 27.719)">
            <path id="Path_13736" data-name="Path 13736" d="M351,449.335l-.176.171a1.967,1.967,0,0,0-.547.745,1.8,1.8,0,0,0-.134.853,1.423,1.423,0,0,0,1.759,1.291,1.8,1.8,0,0,0,.773-.384,1.959,1.959,0,0,0,.547-.745l.111-.22.117-.415a1.243,1.243,0,0,0-.031-.611.739.739,0,0,0-.139-.371,1.025,1.025,0,0,0-.379-.459,1.622,1.622,0,0,0-.747-.262,1.193,1.193,0,0,0-.6.1,1.332,1.332,0,0,0-.557.3Z" transform="translate(-350.139 -448.923)" fill="#282f39"/>
          </g>
          <g id="Group_14461" data-name="Group 14461" transform="translate(44.513 34.29)">
            <path id="Path_13737" data-name="Path 13737" d="M349.657,457.834c1.215.891,2.777-1.233,1.56-2.126s-2.776,1.234-1.56,2.126Z" transform="translate(-349.217 -455.494)" fill="#282f39"/>
          </g>
          <g id="Group_14462" data-name="Group 14462" transform="translate(0 2.534)">
            <path id="Path_13738" data-name="Path 13738" d="M305.2,426.354c1.357,1,3.1-1.379,1.744-2.377s-3.1,1.379-1.744,2.377Z" transform="translate(-304.704 -423.738)" fill="#282f39"/>
          </g>
          <g id="Group_14463" data-name="Group 14463" transform="translate(6.573)">
            <path id="Path_13739" data-name="Path 13739" d="M311.841,424.2c1.556,1.142,3.559-1.581,2-2.725s-3.559,1.581-2,2.725Z" transform="translate(-311.277 -421.204)" fill="#282f39"/>
          </g>
          <g id="Group_14464" data-name="Group 14464" transform="translate(2.259 6.977)">
            <path id="Path_13740" data-name="Path 13740" d="M307.535,431.222c1.578,1.158,3.609-1.6,2.028-2.763s-3.609,1.6-2.028,2.763Z" transform="translate(-306.963 -428.181)" fill="#282f39"/>
          </g>
        </g>
      </g>
      <ellipse id="Ellipse_80" data-name="Ellipse 80" cx="18.005" cy="18.25" rx="18.005" ry="18.25" transform="translate(4.397 29.033) rotate(-53.733)" fill="#72d150"/>
      <g id="Group_14475" data-name="Group 14475" transform="translate(14.79 9.246)">
        <g id="Group_14467" data-name="Group 14467" transform="translate(11.601)">
          <path id="Path_13741" data-name="Path 13741" d="M328.409,426.5l.027-.093.123-.436a1.3,1.3,0,0,0-.033-.641.762.762,0,0,0-.145-.389,1.063,1.063,0,0,0-.4-.482,1.685,1.685,0,0,0-.784-.275,1.254,1.254,0,0,0-.626.107,1.39,1.39,0,0,0-.584.319l-.082.055a2.055,2.055,0,0,0-.57.777,1.87,1.87,0,0,0-.139.889,1.484,1.484,0,0,0,1.834,1.347,1.87,1.87,0,0,0,.807-.4,2.058,2.058,0,0,0,.571-.778Z" transform="translate(-325.19 -424.177)" fill="#282f39"/>
        </g>
        <g id="Group_14468" data-name="Group 14468" transform="translate(9.876 10.306)">
          <path id="Path_13742" data-name="Path 13742" d="M324.149,438.121c1.888,1.385,4.316-1.918,2.425-3.3s-4.316,1.917-2.425,3.3Z" transform="translate(-323.464 -434.484)" fill="#282f39"/>
        </g>
        <g id="Group_14469" data-name="Group 14469" transform="translate(19.7 5.421)">
          <path id="Path_13743" data-name="Path 13743" d="M334.021,433.491c2.02,1.482,4.618-2.052,2.6-3.537s-4.619,2.052-2.6,3.537Z" transform="translate(-333.288 -429.598)" fill="#282f39"/>
        </g>
        <g id="Group_14470" data-name="Group 14470" transform="translate(0 8.82)">
          <path id="Path_13744" data-name="Path 13744" d="M314.213,436.316c1.722,1.263,3.937-1.749,2.213-3.015s-3.938,1.749-2.213,3.015Z" transform="translate(-313.589 -432.997)" fill="#282f39"/>
        </g>
        <g id="Group_14471" data-name="Group 14471" transform="translate(4.646 21.333)">
          <path id="Path_13745" data-name="Path 13745" d="M318.967,449.4c2.02,1.482,4.618-2.052,2.6-3.537s-4.618,2.052-2.6,3.537Z" transform="translate(-318.235 -445.51)" fill="#282f39"/>
        </g>
        <g id="Group_14472" data-name="Group 14472" transform="translate(17.69 17.002)">
          <path id="Path_13746" data-name="Path 13746" d="M331.951,444.752c1.854,1.361,4.24-1.884,2.382-3.247s-4.24,1.884-2.382,3.247Z" transform="translate(-331.278 -441.179)" fill="#282f39"/>
        </g>
        <g id="Group_14473" data-name="Group 14473" transform="translate(26.017 12.333)">
          <path id="Path_13747" data-name="Path 13747" d="M342.81,436.861a1.332,1.332,0,0,0-.51-.262,1.925,1.925,0,0,0-.976-.044,2.6,2.6,0,0,0-.483.164c-.077.047-.153.1-.228.148a1.581,1.581,0,0,0-.551.505c-.019.023-.036.045-.053.069a2.492,2.492,0,0,0-.381.921,1.776,1.776,0,0,0,.082.887,1.134,1.134,0,0,0,.364.541,1.118,1.118,0,0,0,.55.362,1.62,1.62,0,0,0,.87.046,3.956,3.956,0,0,0,.508-.183l-.438.154a2.877,2.877,0,0,0,.479-.17,4.809,4.809,0,0,0,.444-.289l-.4.265a.558.558,0,0,1,.078-.038l-.436.153a.261.261,0,0,1,.055-.013l-.444.037a.312.312,0,0,1,.081,0l-.427-.082.027.007a1.741,1.741,0,0,0,1.291-.1l.394-.258a1.582,1.582,0,0,0,.459-.576,1.008,1.008,0,0,0,.185-.442,1.4,1.4,0,0,0,.079-.679c-.032-.143-.065-.286-.1-.429a1.5,1.5,0,0,0-.517-.693Z" transform="translate(-339.606 -436.51)" fill="#282f39"/>
        </g>
        <g id="Group_14474" data-name="Group 14474" transform="translate(15.496 25.477)">
          <path id="Path_13748" data-name="Path 13748" d="M331.593,452.706a2.06,2.06,0,0,0,.776-1.363,1.411,1.411,0,0,0-2.074-1.522,2.065,2.065,0,0,0-1.067,1.15l-.119.42a1.254,1.254,0,0,0,.032.62.736.736,0,0,0,.14.376,1.038,1.038,0,0,0,.385.466,1.654,1.654,0,0,0,.758.266,1.762,1.762,0,0,0,1.169-.413Z" transform="translate(-329.085 -449.654)" fill="#282f39"/>
        </g>
      </g>
      <g id="Group_14476" data-name="Group 14476" transform="translate(8.597 1.837)">
        <path id="Path_13749" data-name="Path 13749" d="M310.372,416.769a2.755,2.755,0,0,0-2.108,1.006,2.59,2.59,0,0,0-.761,2.473c.268.619,1.094.393,1.26-.271a5.325,5.325,0,0,1,.361-1.57,2.693,2.693,0,0,1,1.3-1.1c.268-.115.215-.533-.05-.541Z" transform="translate(-307.395 -416.768)" fill="#fff"/>
      </g>
      <g id="Group_14477" data-name="Group 14477" transform="translate(2.573 6.284)">
        <path id="Path_13750" data-name="Path 13750" d="M302.142,421.324a2.018,2.018,0,0,0-.68,1.226,1.786,1.786,0,0,0,.124,1.448.808.808,0,0,0,1.375-.485c.047-.407-.135-.668-.139-1.031,0-.3.09-.591.074-.888-.021-.406-.457-.47-.754-.27Z" transform="translate(-301.372 -421.214)" fill="#fff"/>
      </g>
      <g id="Group_14478" data-name="Group 14478" transform="translate(16.8 8.522)">
        <path id="Path_13751" data-name="Path 13751" d="M316.068,429.289a20.947,20.947,0,0,1,7.6-4.418c.838-.29.743-1.656-.129-1.382a17.682,17.682,0,0,0-7.863,5.406.279.279,0,0,0,.395.394Z" transform="translate(-315.598 -423.453)" fill="#fff"/>
      </g>
      <g id="Group_14479" data-name="Group 14479" transform="translate(26.864 7.904)">
        <path id="Path_13752" data-name="Path 13752" d="M326.032,424.032a6.58,6.58,0,0,1,1.475.092,9.309,9.309,0,0,0,1.42.319c.61.018,1.081-.913.526-1.255a4.794,4.794,0,0,0-3.39-.086c-.489.12-.566.951-.031.93Z" transform="translate(-325.662 -422.835)" fill="#fff"/>
      </g>
      <g id="Group_14480" data-name="Group 14480" transform="translate(44.111 21.336)">
        <path id="Path_13753" data-name="Path 13753" d="M345.082,436.42c-.229,1.166-.241,2.328-.546,3.495a20.161,20.161,0,0,1-1.55,3.556c-.363.759.658,1.243,1.147.6,1.511-1.99,2.321-5.626,1.257-7.716a.164.164,0,0,0-.308.066Z" transform="translate(-342.91 -436.267)" fill="#fff"/>
      </g>
      <g id="Group_14481" data-name="Group 14481" transform="translate(54.928 34.531)">
        <path id="Path_13754" data-name="Path 13754" d="M355.571,450.017a4.8,4.8,0,0,1-1.611,3.254c-.5.531-.15,1.4.576,1.069a3.973,3.973,0,0,0,1.888-4.622c-.167-.507-.843-.183-.853.3Z" transform="translate(-353.726 -449.462)" fill="#fff"/>
      </g>
      <g id="Group_14482" data-name="Group 14482" transform="translate(52.606 44.076)">
        <path id="Path_13755" data-name="Path 13755" d="M351.542,460.234a2.263,2.263,0,0,0,2.739.109c.628-.433.213-1.53-.487-1.307-.335.106-.645.263-.985.34a2.637,2.637,0,0,1-.926.045c-.439-.065-.629.576-.341.813Z" transform="translate(-351.405 -459.006)" fill="#fff"/>
      </g>
    </g>
    <g id="Group_14491" data-name="Group 14491" transform="translate(359.517 412.271)">
      <g id="Group_14484" data-name="Group 14484" transform="translate(0 21.029)">
        <path id="Path_13756" data-name="Path 13756" d="M44.271,458.291c-6.106,10.521-11.684,21.33-18.081,31.688a.933.933,0,0,1-1.626-.915c5.822-10.7,12.441-20.9,18.549-31.425a.665.665,0,0,1,1.158.652Z" transform="translate(-24.439 -457.314)" fill="#fff7c7"/>
      </g>
      <path id="Path_13757" data-name="Path 13757" d="M51.3,437.456a2.8,2.8,0,0,1,1.971-1.171c1.8.477,4.8,1.954,5.209,3.767a4.855,4.855,0,0,1-.506,2.846,80.814,80.814,0,0,1-4.442,8.706,107.068,107.068,0,0,1-7.027,11.367,11.522,11.522,0,0,1-4.162,3.87,4.085,4.085,0,0,1-6.212-4.216,12.09,12.09,0,0,1,1.077-3.483A77.765,77.765,0,0,1,51.3,437.456Z" transform="translate(-24.439 -436.284)" fill="#ff893d"/>
      <g id="Group_14485" data-name="Group 14485" transform="translate(11.674 4.302)">
        <path id="Path_13758" data-name="Path 13758" d="M52.342,444.139a19.689,19.689,0,0,0-6.813.393q1.455-2.013,3.035-3.929a19.286,19.286,0,0,1,5.318.566,8.972,8.972,0,0,1,3.956,2.047q-.536,1.264-1.143,2.5A8.566,8.566,0,0,0,52.342,444.139Z" transform="translate(-36.113 -440.587)" fill="#ffec69"/>
        <path id="Path_13759" data-name="Path 13759" d="M43.9,446.877c3.856-.479,8.079-.1,11.247,1.82q-.561,1.031-1.136,2.054c-3.793-1.371-8.336-1.038-12.293-.421Q42.762,448.575,43.9,446.877Z" transform="translate(-36.113 -440.587)" fill="#ffec69"/>
        <path id="Path_13760" data-name="Path 13760" d="M36.113,462.9c.005-.091.009-.182.018-.273a12.09,12.09,0,0,1,1.077-3.483c.046-.106.094-.211.141-.317a21.106,21.106,0,0,1,2.5-.456,17.085,17.085,0,0,1,8.857,1.413q-.786,1.21-1.622,2.388a15.245,15.245,0,0,0-6.783-.548A14.533,14.533,0,0,0,36.113,462.9Z" transform="translate(-36.113 -440.587)" fill="#ffec69"/>
        <path id="Path_13761" data-name="Path 13761" d="M38.588,456.2l-.033.007q.938-1.939,1.986-3.822a25.814,25.814,0,0,1,4.435-.215,22.227,22.227,0,0,1,7.437,1.419q-.658,1.164-1.332,2.32a24.667,24.667,0,0,0-6.233-.457A42.908,42.908,0,0,0,38.588,456.2Z" transform="translate(-36.113 -440.587)" fill="#ffec69"/>
      </g>
      <g id="Group_14490" data-name="Group 14490" transform="translate(19.88 2.063)">
        <g id="Group_14486" data-name="Group 14486" transform="translate(2.497 13.562)">
          <path id="Path_13762" data-name="Path 13762" d="M52.123,452.53a22.8,22.8,0,0,1-4.038,6.663c-.555.578-1.623-.177-1.152-.871,1.432-2.113,3.115-4.022,4.458-6.2a.42.42,0,0,1,.732.412Z" transform="translate(-46.816 -451.909)" fill="#fff"/>
        </g>
        <g id="Group_14487" data-name="Group 14487" transform="translate(0 21.279)">
          <path id="Path_13763" data-name="Path 13763" d="M46.436,460.459a7.446,7.446,0,0,1-.555.635c-.08.087-.156.178-.244.258a1,1,0,0,1-.645.249.665.665,0,0,1-.479-1.123,1.241,1.241,0,0,1,.414-.268,2.578,2.578,0,0,0,.277-.064.941.941,0,0,0,.256-.236.577.577,0,0,1,.762-.213.562.562,0,0,1,.214.762Z" transform="translate(-44.319 -459.626)" fill="#fff"/>
        </g>
        <g id="Group_14488" data-name="Group 14488" transform="translate(3.857 1.612)">
          <path id="Path_13764" data-name="Path 13764" d="M50.22,440.146c.1.249-.109.533-.218.753a4.848,4.848,0,0,0-.431.842.71.71,0,1,1-1.05-.786c.235-.163,1.442-1.474,1.7-.809Z" transform="translate(-48.176 -439.959)" fill="#fff"/>
        </g>
        <g id="Group_14489" data-name="Group 14489" transform="translate(5.993)">
          <path id="Path_13765" data-name="Path 13765" d="M50.659,439.661a.7.7,0,0,1,.686-1.219.7.7,0,0,1-.686,1.219Z" transform="translate(-50.312 -438.347)" fill="#fff"/>
        </g>
      </g>
    </g>
  </g>
</svg>
