<svg xmlns="http://www.w3.org/2000/svg" width="76.669" height="57.065" viewBox="0 0 76.669 57.065">
  <g id="_046-esports" data-name="046-esports" transform="translate(0 -65.456)">
    <path id="Path_16585" data-name="Path 16585" d="M334.3,177.431l1.926-17.338,18.262-8.138a1.72,1.72,0,0,1,2.327,2.129l-2.276,6.634a1.2,1.2,0,0,0,1.62,1.482l2.326-1.037a1.72,1.72,0,0,1,2.327,2.129l-.743,2.166A15.754,15.754,0,0,1,346.946,176Z" transform="translate(-284.245 -73.416)" fill="#8ee2e1"/>
    <path id="Path_16586" data-name="Path 16586" d="M351.522,166a13.986,13.986,0,0,0-.252-3.582l-15.038,6.7L334.3,186.46l11.9-1.349A51.383,51.383,0,0,0,351.522,166Z" transform="translate(-284.245 -82.445)" fill="#6ad7d4"/>
    <path id="Path_16587" data-name="Path 16587" d="M357.423,236.78a1.123,1.123,0,0,1-.458-2.149l11.768-5.244a1.123,1.123,0,0,1,.914,2.052l-11.768,5.244A1.119,1.119,0,0,1,357.423,236.78Z" transform="translate(-302.946 -139.301)" fill="#5abfd6"/>
    <path id="Path_16588" data-name="Path 16588" d="M26.608,177.432l-1.926-17.338L6.42,151.956a1.72,1.72,0,0,0-2.327,2.129l2.276,6.634A1.2,1.2,0,0,1,4.75,162.2l-2.326-1.037A1.72,1.72,0,0,0,.1,163.293l.743,2.166A15.754,15.754,0,0,0,13.967,176Z" transform="translate(0 -73.417)" fill="#8ee2e1"/>
    <path id="Path_16589" data-name="Path 16589" d="M79.8,186.461l-1.926-17.338-15.038-6.7A13.983,13.983,0,0,0,62.584,166,51.365,51.365,0,0,0,67.9,185.113Z" transform="translate(-53.192 -82.446)" fill="#6ad7d4"/>
    <path id="Path_16590" data-name="Path 16590" d="M75,236.781a1.119,1.119,0,0,1-.456-.1l-11.768-5.244a1.123,1.123,0,0,1,.914-2.052l11.768,5.244A1.123,1.123,0,0,1,75,236.781Z" transform="translate(-52.811 -139.301)" fill="#5abfd6"/>
    <path id="Path_16591" data-name="Path 16591" d="M147.488,139.672c7.443-5.082,15.784-18.539,16.525-31.055a4.26,4.26,0,0,0-1.15-3.153c-4.507-4.826-11.881-9.419-18.5-9.419s-14,4.593-18.5,9.419a4.259,4.259,0,0,0-1.15,3.153c.741,12.517,9.082,25.973,16.525,31.055A5.555,5.555,0,0,0,147.488,139.672Z" transform="translate(-106.024 -26.009)" fill="#a78cd6"/>
    <path id="Path_16592" data-name="Path 16592" d="M139.574,76.243c-4.647-4.976-13.137-10.787-21.771-10.787s-17.124,5.811-21.771,10.787a9.541,9.541,0,0,0-2.551,7.041,47.971,47.971,0,0,0,6.214,19.957c3.369,6.031,7.761,11.17,12.049,14.1a10.75,10.75,0,0,0,12.12,0c4.288-2.928,8.679-8.066,12.049-14.1a47.97,47.97,0,0,0,6.214-19.957A9.543,9.543,0,0,0,139.574,76.243Zm-2.838,6.722c-.714,12.057-8.748,25.019-15.918,29.915a5.351,5.351,0,0,1-6.03,0c-7.169-4.9-15.2-17.858-15.918-29.915a4.1,4.1,0,0,1,1.108-3.037c4.341-4.649,11.445-9.073,17.825-9.073s13.484,4.424,17.825,9.073a4.1,4.1,0,0,1,1.108,3.037Z" transform="translate(-79.469)" fill="#d4d4ff"/>
    <path id="Path_16594" data-name="Path 16594" d="M222.438,346.364a46.206,46.206,0,0,0-16.471-2.907,49.914,49.914,0,0,0-5.973.355c-4.556,3.586-3.871,10.8,3.83,12.665q1.054-.044,2.143-.045a46.87,46.87,0,0,1,14.759,2.3,3.161,3.161,0,0,0,4.155-3v-5.815A3.8,3.8,0,0,0,222.438,346.364Z" transform="translate(-167.633 -236.372)" fill="#f5ea72"/>
    <path id="Path_16595" data-name="Path 16595" d="M133.841,360.75a46.225,46.225,0,0,1,12.617-2.253c-4.747-2.551-5.652-8.674-3.83-12.665a44.385,44.385,0,0,0-10.5,2.552,3.8,3.8,0,0,0-2.444,3.55v5.815A3.161,3.161,0,0,0,133.841,360.75Z" transform="translate(-110.267 -238.391)" fill="#ebca5f"/>
    <path id="Path_16596" data-name="Path 16596" d="M203.571,382.516a1.133,1.133,0,0,1-.228-.023,48.6,48.6,0,0,0-19.234,0,1.123,1.123,0,0,1-.454-2.2,50.846,50.846,0,0,1,20.143,0,1.123,1.123,0,0,1-.226,2.223Z" transform="translate(-155.391 -266.835)" fill="#5abfd6"/>
    <rect id="Rectangle_20115" data-name="Rectangle 20115" width="4" height="16" rx="2" transform="translate(36.668 82.044)" fill="#fff"/>
    <rect id="Rectangle_20116" data-name="Rectangle 20116" width="4" height="16" rx="2" transform="translate(46.668 88.044) rotate(90)" fill="#fff"/>
  </g>
</svg>
