<svg xmlns="http://www.w3.org/2000/svg" width="52.258" height="41.833" viewBox="0 0 52.258 41.833">
  <g id="_001-online_game" data-name="001-online game" transform="translate(0 -51.068)">
    <path id="Path_16046" data-name="Path 16046" d="M41.31,80.63a10.833,10.833,0,1,0-2.632-21.312,1.593,1.593,0,0,1-1.885-.973,11.452,11.452,0,0,0-21.328,0,1.593,1.593,0,0,1-1.885.973A10.833,10.833,0,1,0,10.948,80.63H41.31Z" transform="translate(0)" fill="#efedff"/>
    <path id="Path_16047" data-name="Path 16047" d="M76.06,210.741h30.362a11,11,0,0,0,3.546-.586l-.646-3.044a8.43,8.43,0,0,0-8.562-6.671,5.811,5.811,0,0,0-5.647-4.473H87.369a5.811,5.811,0,0,0-5.647,4.473,8.43,8.43,0,0,0-8.562,6.671l-.646,3.044a11,11,0,0,0,3.546.586Z" transform="translate(-65.113 -130.111)" fill="#d4d4ff"/>
    <path id="Path_16048" data-name="Path 16048" d="M202.522,226.873h-7.746a2.646,2.646,0,0,0-2.646,2.646v4.1h13.038v-4.1A2.646,2.646,0,0,0,202.522,226.873Z" transform="translate(-172.52 -157.861)" fill="#807bcf"/>
    <path id="Path_16049" data-name="Path 16049" d="M183.553,284.872l-2.123-10.009a5.262,5.262,0,0,0-5.148-4.171H158.87c-4.393,4.577-3.022,12.037,2.382,12.749h10.557a2.285,2.285,0,0,1,2.157,1.53l.627,1.792a5,5,0,0,0,4.717,3.346A4.338,4.338,0,0,0,183.553,284.872Z" transform="translate(-140.306 -197.209)" fill="#a78cd6"/>
    <path id="Path_16050" data-name="Path 16050" d="M94.7,270.692a5.262,5.262,0,0,0-5.148,4.171l-2.123,10.009a4.338,4.338,0,0,0,4.243,5.238,5,5,0,0,0,4.717-3.346l.627-1.792a2.285,2.285,0,0,1,2.157-1.53h.191c-3.085-1.652-3.585-8.982-2.382-12.749H94.7Z" transform="translate(-78.422 -197.208)" fill="#807bcf"/>
    <path id="Path_16051" data-name="Path 16051" d="M157.1,309.831h-1.032V308.8a.765.765,0,1,0-1.531,0v1.032H153.5a.765.765,0,1,0,0,1.531h1.032v1.032a.765.765,0,1,0,1.531,0v-1.032H157.1a.765.765,0,1,0,0-1.531Z" transform="translate(-137.146 -230.738)" fill="#f7ef87"/>
    <path id="Path_16052" data-name="Path 16052" d="M313.4,309.831h-1.032V308.8a.765.765,0,1,0-1.531,0v1.032H309.8a.765.765,0,0,0,0,1.531h1.032v1.032a.765.765,0,1,0,1.531,0v-1.032H313.4a.765.765,0,0,0,0-1.531Z" transform="translate(-277.496 -230.738)" fill="#fff"/>
    <path id="Path_16053" data-name="Path 16053" d="M241.881,327.178h-1.894a.765.765,0,1,1,0-1.531h1.894a.765.765,0,1,1,0,1.531Z" transform="translate(-214.805 -246.554)" fill="#8ee2e1"/>
    <g id="Group_15908" data-name="Group 15908" transform="translate(14.677 59.706)">
      <g id="Group_15906" data-name="Group 15906" transform="translate(0 1.935)">
        <ellipse id="Ellipse_308" data-name="Ellipse 308" cx="3.087" cy="2.458" rx="3.087" ry="2.458" fill="#eda1ab"/>
        <ellipse id="Ellipse_309" data-name="Ellipse 309" cx="3.087" cy="2.458" rx="3.087" ry="2.458" transform="translate(16.73)" fill="#eda1ab"/>
      </g>
      <g id="Group_15907" data-name="Group 15907" transform="translate(4.12)">
        <path id="Path_16054" data-name="Path 16054" d="M184.931,138.488a.766.766,0,0,1-.766-.766v-1.262a.766.766,0,1,1,1.531,0v1.262A.765.765,0,0,1,184.931,138.488Z" transform="translate(-184.166 -135.695)" fill="#565e75"/>
        <path id="Path_16055" data-name="Path 16055" d="M313.6,138.488a.766.766,0,0,1-.766-.766v-1.262a.765.765,0,1,1,1.531,0v1.262A.765.765,0,0,1,313.6,138.488Z" transform="translate(-299.701 -135.695)" fill="#565e75"/>
        <path id="Path_16056" data-name="Path 16056" d="M234.035,150.009a3.061,3.061,0,0,1-2.308-1.051.765.765,0,0,1,1.154-1.006,1.529,1.529,0,0,0,2.308,0,.765.765,0,1,1,1.154,1.006A3.062,3.062,0,0,1,234.035,150.009Z" transform="translate(-226.703 -146.465)" fill="#565e75"/>
      </g>
    </g>
  </g>
</svg>
