<svg xmlns="http://www.w3.org/2000/svg" width="581.016" height="437.286" viewBox="0 0 581.016 437.286">
  <g id="Group_16057" data-name="Group 16057" transform="translate(-124.251 -564)" opacity="0.78">
    <g id="_022-tournament" data-name="022-tournament" transform="translate(124.251 564)">
      <g id="Group_15961" data-name="Group 15961" transform="translate(0 59.705)">
        <path id="Path_16285" data-name="Path 16285" d="M338.956,203.2H221.8L199.16,280.354a31.21,31.21,0,0,0,29.946,40H331.654a31.21,31.21,0,0,0,29.946-40Z" transform="translate(10.127 25.531)" fill="#a78cd6"/>
        <path id="Path_16286" data-name="Path 16286" d="M144.954,194.578c-34.1-16.96-63.063-47.4-88.54-93.059a39.974,39.974,0,0,1,69.815-38.956c35.252,63.176,72.177,83.6,139.64,55.18A39.974,39.974,0,0,1,296.9,191.422C246.792,212.531,193.84,218.891,144.954,194.578Z" transform="translate(-51.34 -42.061)" fill="#a78cd6"/>
        <path id="Path_16287" data-name="Path 16287" d="M446.843,194.578c34.1-16.96,63.063-47.4,88.54-93.059a39.974,39.974,0,1,0-69.815-38.956c-35.251,63.176-72.177,83.6-139.64,55.18a39.974,39.974,0,0,0-31.035,73.679C345,212.531,397.956,218.891,446.843,194.578Z" transform="translate(40.559 -42.061)" fill="#a78cd6"/>
      </g>
      <path id="Path_16288" data-name="Path 16288" d="M410.495,186.515,428.117,91.14c-26.266,22.22-57.537,24.828-102.19,6.019a39.974,39.974,0,1,0-31.035,73.679c37.907,15.966,77.436,23.481,115.6,15.678Z" transform="translate(40.559 38.23)" fill="#807bcf"/>
      <path id="Path_16289" data-name="Path 16289" d="M232.672,97.158c-44.654,18.809-75.924,16.2-102.19-6.019L148.1,186.514c38.167,7.8,77.7.288,115.6-15.679a39.974,39.974,0,1,0-31.037-73.677Z" transform="translate(-18.142 38.23)" fill="#807bcf"/>
      <path id="Path_16290" data-name="Path 16290" d="M215.713,273.555H342.876a86.872,86.872,0,0,0,15.248-1.346L337.869,203.2H220.718l-20.254,69.007a86.913,86.913,0,0,0,15.249,1.346Z" transform="translate(11.213 85.236)" fill="#807bcf"/>
      <path id="Path_16291" data-name="Path 16291" d="M405.9,0H194.058a42.891,42.891,0,0,0-42.177,50.683L194.22,279.825a42.889,42.889,0,0,0,42.177,35.1H363.559a42.892,42.892,0,0,0,42.177-35.1L448.074,50.683A42.889,42.889,0,0,0,405.9,0Z" transform="translate(-9.471)" fill="#d4d4ff"/>
      <path id="Path_16292" data-name="Path 16292" d="M297.277,144.25l-8.043,15.427a18.351,18.351,0,0,1-32.545,0l-8.043-15.427a18.346,18.346,0,0,0-7.789-7.789l-15.427-8.043a18.353,18.353,0,0,1,0-32.547l15.427-8.043a18.346,18.346,0,0,0,7.789-7.789l8.043-15.427a18.351,18.351,0,0,1,32.545,0l8.043,15.427a18.347,18.347,0,0,0,7.789,7.789l15.427,8.043a18.353,18.353,0,0,1,0,32.547l-15.427,8.043a18.347,18.347,0,0,0-7.789,7.789Z" transform="translate(17.546 22.964)" fill="#a78cd6"/>
      <path id="Path_16293" data-name="Path 16293" d="M254.029,65.291l-5.383,10.325a18.347,18.347,0,0,1-7.789,7.789l-15.427,8.043a18.353,18.353,0,0,0,0,32.547l15.427,8.043a18.347,18.347,0,0,1,7.789,7.789l8.043,15.427a18.351,18.351,0,0,0,32.545,0l8.043-15.427a18.343,18.343,0,0,1,2.129-3.194c-28.633-8.209-45.945-51.534-45.377-71.341Z" transform="translate(17.546 27.387)" fill="#807bcf"/>
    </g>
    <g id="_014-money" data-name="014-money" transform="translate(133.251 728.868)">
      <path id="Path_16187" data-name="Path 16187" d="M298,120.555,137.168,281.385a23.5,23.5,0,0,1-33.233,0L40.109,217.56a23.5,23.5,0,0,1,0-33.233L200.94,23.5a23.5,23.5,0,0,1,33.233,0L298,87.322a23.5,23.5,0,0,1,0,33.233Z" transform="translate(-14.374 -15.85)" fill="#d4d4ff"/>
      <path id="Path_16188" data-name="Path 16188" d="M169.648,237.973c18.8,18.8,40.315,31.455,60.18,36.879l61.636-61.636c-5.424-19.865-18.076-41.378-36.879-60.18s-40.315-31.455-60.18-36.879l-61.636,61.636c5.424,19.864,18.076,41.377,36.879,60.18Z" transform="translate(-57.436 -58.913)" fill="#9ea2e3"/>
      <g id="Group_15938" data-name="Group 15938" transform="translate(73.901 55.812)">
        <path id="Path_16189" data-name="Path 16189" d="M134.5,381.551a4.255,4.255,0,0,1-3.009-7.264l13.545-13.545a4.256,4.256,0,1,1,6.018,6.018L137.511,380.3a4.243,4.243,0,0,1-3.009,1.247Z" transform="translate(-130.246 -219.993)" fill="#9ea2e3"/>
        <path id="Path_16190" data-name="Path 16190" d="M380.362,135.69a4.256,4.256,0,0,1-3.009-7.264L390.9,114.88a4.255,4.255,0,1,1,6.018,6.018l-13.545,13.545A4.241,4.241,0,0,1,380.362,135.69Z" transform="translate(-236.606 -113.633)" fill="#9ea2e3"/>
      </g>
      <path id="Path_16191" data-name="Path 16191" d="M250.948,186.568H180.807l-43.584,12.444L93.64,186.568H23.5A23.5,23.5,0,0,0,0,210.067V300.33a23.5,23.5,0,0,0,23.5,23.5H93.64l43.583-12.444,43.583,12.444h70.141a23.5,23.5,0,0,0,23.5-23.5V210.067a23.5,23.5,0,0,0-23.5-23.5Z" transform="translate(0 -89.373)" fill="#8ee2e1"/>
      <path id="Path_16192" data-name="Path 16192" d="M151.723,199.012,108.14,186.568H38a23.569,23.569,0,0,0-4.482.432,68.824,68.824,0,0,0,122.947,10.658Z" transform="translate(-14.499 -89.373)" fill="#6ad7d4"/>
      <path id="Path_16193" data-name="Path 16193" d="M135.995,255.2c0,26.591,6.265,50.749,16.477,68.631h87.167c10.211-17.882,16.477-42.04,16.477-68.631s-6.266-50.749-16.477-68.631H152.472C142.261,204.45,135.995,228.608,135.995,255.2Z" transform="translate(-58.832 -89.373)" fill="#6ad7d4"/>
      <path id="Path_16194" data-name="Path 16194" d="M139.23,230.653c1.371.082,2.752.128,4.143.128a68.963,68.963,0,0,0,64.29-44.213h-53.79C146.913,198.753,141.79,213.855,139.23,230.653Z" transform="translate(-60.231 -89.373)" fill="#5abfd6"/>
      <path id="Path_16195" data-name="Path 16195" d="M233.652,269.573c-1.3-.46-2.632-.942-3.959-1.446V247.147a13.539,13.539,0,0,1,5.594,2.647,4.256,4.256,0,0,0,5.743-6.282,22.531,22.531,0,0,0-11.337-5.015v-4.347a4.255,4.255,0,0,0-8.511,0v4.673c-.68.147-1.371.319-2.077.532-13.17,3.967-16.54,21.821-7.041,29.271a42.375,42.375,0,0,0,9.119,5.212v26.508c-3.484-.238-5.854-1.057-9.776-3.622a4.255,4.255,0,1,0-4.659,7.122c5.517,3.609,9.26,4.733,14.434,5.016v4.87a4.255,4.255,0,1,0,8.511,0v-5.2c19.246-3.681,24.628-31.654,3.96-38.961Zm-12.47-5.191a26.949,26.949,0,0,1-3.866-2.452c-3.92-3.074-2.456-12.062,3.866-14.3Zm8.511,35.347V277.2c.371.133.738.266,1.123.4C242.355,281.677,239.46,296.4,229.693,299.73Z" transform="translate(-88.606 -108.116)" fill="#fff"/>
      <g id="Group_15939" data-name="Group 15939" transform="translate(24.748 161.57)">
        <path id="Path_16196" data-name="Path 16196" d="M67.028,308.536H47.872a4.255,4.255,0,1,1,0-8.511H67.028a4.255,4.255,0,1,1,0,8.511Z" transform="translate(-43.617 -300.025)" fill="#6ad7d4"/>
        <path id="Path_16197" data-name="Path 16197" d="M414.728,308.536H395.571a4.255,4.255,0,1,1,0-8.511h19.156a4.255,4.255,0,1,1,0,8.511Z" transform="translate(-194.032 -300.025)" fill="#6ad7d4"/>
      </g>
      <circle id="Ellipse_339" data-name="Ellipse 339" cx="51.314" cy="51.314" r="51.314" transform="translate(10.566 72.558) rotate(-45)" fill="#f5ea72"/>
      <circle id="Ellipse_340" data-name="Ellipse 340" cx="28.983" cy="28.983" r="28.983" transform="translate(54.158 43.575)" fill="#ebca5f"/>
    </g>
  </g>
</svg>
