<svg xmlns="http://www.w3.org/2000/svg" width="30.651" height="27.935" viewBox="0 0 30.651 27.935">
  <g id="_005-money_bag" data-name="005-money bag" transform="translate(0 -22.685)">
    <path id="Path_16086" data-name="Path 16086" d="M264.608,125.245a1.838,1.838,0,1,1,2-3.081,10.735,10.735,0,0,0,6.235,1.28,1.838,1.838,0,1,1,.256,3.667A14.246,14.246,0,0,1,264.608,125.245Z" transform="translate(-247.981 -93.244)" fill="#d2896f"/>
    <path id="Path_16087" data-name="Path 16087" d="M172.893,31.4a17.346,17.346,0,0,1,1.731-6.281,1.611,1.611,0,0,0-.9-2.278,3.708,3.708,0,0,0-3.752,1.067.972.972,0,0,1-1.372,0,3.708,3.708,0,0,0-3.752-1.067,1.611,1.611,0,0,0-.9,2.278,17.347,17.347,0,0,1,1.731,6.281Z" transform="translate(-153.962)" fill="#f5ea72"/>
    <path id="Path_16088" data-name="Path 16088" d="M172.893,31.4a17.346,17.346,0,0,1,1.731-6.281,1.611,1.611,0,0,0-.9-2.278,3.708,3.708,0,0,0-3.752,1.067.972.972,0,0,1-1.372,0,3.708,3.708,0,0,0-3.752-1.067,1.611,1.611,0,0,0-.9,2.278,17.347,17.347,0,0,1,1.731,6.281Z" transform="translate(-153.962)" fill="#f5ea72"/>
    <path id="Path_16089" data-name="Path 16089" d="M182.416,78.917a14.528,14.528,0,0,1-6.419,0,3.961,3.961,0,0,0-1.681-.112A17.151,17.151,0,0,1,175.6,84.12h7.21a17.15,17.15,0,0,1,1.285-5.314A3.96,3.96,0,0,0,182.416,78.917Z" transform="translate(-163.88 -52.72)" fill="#ebca5f"/>
    <path id="Path_16090" data-name="Path 16090" d="M21.772,166.239c4.9,0,8.88-2.863,8.88-6.4,0-10.469-11.389-7.089-11.389-14.177H11.389C11.389,152.755,0,149.374,0,159.843c0,3.532,3.976,6.4,8.88,6.4Z" transform="translate(0 -115.619)" fill="#f5ea72"/>
    <path id="Path_16091" data-name="Path 16091" d="M19.262,145.666H11.389C11.389,152.754,0,149.374,0,159.843c0,3.532,3.976,6.4,8.88,6.4h4.913c-8.884-2.32-5.343-11.078-1.763-15.835a.961.961,0,0,1,.872-.379,22.994,22.994,0,0,0,2.423.142,23.331,23.331,0,0,0,5.413-.669c.1-.03.2-.064.3-.1A4.42,4.42,0,0,1,19.262,145.666Z" transform="translate(0 -115.619)" fill="#ebca5f"/>
    <path id="Path_16092" data-name="Path 16092" d="M159.428,119a21.169,21.169,0,0,1-4.818-.585,1.838,1.838,0,1,1,1.013-3.533,16.573,16.573,0,0,0,7.609,0,1.838,1.838,0,1,1,1.013,3.533A21.169,21.169,0,0,1,159.428,119Z" transform="translate(-144.102 -86.614)" fill="#daa985"/>
    <path id="Path_16093" data-name="Path 16093" d="M182.563,336.877l4.4,1.446,4.4-1.446a1.216,1.216,0,0,0-.357-.842l-1.054-1.053a1.6,1.6,0,0,0-1.134-.469h-3.7a1.6,1.6,0,0,0-1.134.469l-1.054,1.053A1.216,1.216,0,0,0,182.563,336.877Z" transform="translate(-171.634 -293.16)" fill="#8ee2e1"/>
    <path id="Path_16094" data-name="Path 16094" d="M182.56,374a1.216,1.216,0,0,0,.336.863l3.177,3.336a1.22,1.22,0,0,0,1.767,0l3.177-3.336a1.216,1.216,0,0,0,.336-.863Z" transform="translate(-171.631 -330.281)" fill="#6ad7d4"/>
    <g id="Group_15917" data-name="Group 15917" transform="translate(8.601 35.808)">
      <g id="Group_15915" data-name="Group 15915" transform="translate(0 0.815)">
        <path id="Path_16095" data-name="Path 16095" d="M147.3,267.879a1.86,1.86,0,1,1-1.812-1.443A1.66,1.66,0,0,1,147.3,267.879Z" transform="translate(-143.678 -265.782)" fill="#eda1ab"/>
        <path id="Path_16096" data-name="Path 16096" d="M307.774,267.879a1.86,1.86,0,1,0,1.812-1.443A1.66,1.66,0,0,0,307.774,267.879Z" transform="translate(-297.95 -265.782)" fill="#eda1ab"/>
        <path id="Path_16097" data-name="Path 16097" d="M234.514,256.507c0-.9-.654-.988-1.461-.988s-1.461.085-1.461.988a1.471,1.471,0,1,0,2.923,0Z" transform="translate(-226.328 -255.519)" fill="#565e75"/>
      </g>
      <g id="Group_15916" data-name="Group 15916" transform="translate(1.666)">
        <path id="Path_16098" data-name="Path 16098" d="M171.962,243.538a.449.449,0,0,1-.449-.449v-.74a.449.449,0,1,1,.9,0v.74A.449.449,0,0,1,171.962,243.538Z" transform="translate(-171.513 -241.9)" fill="#565e75"/>
        <path id="Path_16099" data-name="Path 16099" d="M325.936,243.538a.449.449,0,0,1-.449-.449v-.74a.449.449,0,1,1,.9,0v.74A.449.449,0,0,1,325.936,243.538Z" transform="translate(-316.269 -241.9)" fill="#565e75"/>
      </g>
    </g>
  </g>
</svg>
