<svg xmlns="http://www.w3.org/2000/svg" xmlns:xlink="http://www.w3.org/1999/xlink" width="769.768" height="169.416" viewBox="0 0 769.768 169.416">
  <defs>
    <linearGradient id="linear-gradient" x1="0.5" y1="1" x2="0.5" gradientUnits="objectBoundingBox">
      <stop offset="0" stop-color="#e7a762"/>
      <stop offset="0.037" stop-color="#e8aa63"/>
      <stop offset="0.341" stop-color="#f3c36c"/>
      <stop offset="0.525" stop-color="#f7cd70"/>
      <stop offset="0.655" stop-color="#f3c56c"/>
      <stop offset="0.847" stop-color="#eab164"/>
      <stop offset="0.98" stop-color="#e2a05d"/>
    </linearGradient>
  </defs>
  <path id="Unión_3" data-name="Unión 3" d="M-1481.81,162.358l-6.388,3.716-4.065-5.576s2.323,3.717-4.066,4.646-54.594,1.394-54.594,1.394l-4.066-4.646s-2.9,5.11-8.131,5.576-69.694-.465-69.694-.465l-5.228-4.181-1.161,4.647-46.463.929-2.325-4.647-3.484,4.647-101.638-2.787-4.647-7.435-5.227,5.576-2.9,2.788s-95.829-3.252-98.734-4.181a95.8,95.8,0,0,1-9.292-4.183l-1.742,3.718s-38.913,2.787-44.14.929a30.373,30.373,0,0,0-11.035-1.394L-1990,18.329l157.394-4.181s.581,4.647,2.9,4.181,5.226-4.181,5.226-4.181l11.615,2.323,1.743-2.786,106.285.464s1.161,3.253,4.065,2.788,2.323-3.717,2.323-3.717l108.608-1.394c1.742,2.323,3.484,2.323,3.484,2.323s4.065,5.112,6.389,3.717,4.646-5.575,4.646-5.575l10.454.464a9.9,9.9,0,0,1,3.485,4.181s4.646-4.646,8.711-5.111,45.884-1.393,52.272,2.323l6.388,3.717,4.066-6.5c4.065,0,98.734-.929,99.895,1.858a9.55,9.55,0,0,0,3.486,4.181c1.742,0,5.226-4.646,5.226-4.646h47.044l5.227,6.505,4.065-4.183s41.237.465,42.98,1.394,0,4.181,5.227,4.181h5.226s2.441,6.235,5.554,14.786c-.7-6.923-1.306-12.2-1.576-13.282-.871-3.488-3.484-15.12-3.484-15.12s6.388-9.3,25.844-6.513,18.586,8.608,18.586,8.608,2.323,81.414,2.9,89.09.871,31.4,1.742,36.752.292,23.209.291,23.261c.06-.01,3.413-.558-10.458,4.721-9.984,3.8-21.129,2.982-26.7,2.2l-52.2.918-4.065-6.04s-18.585,8.363-48.2,6.5-54.014-5.575-54.014-5.575l-4.065,5.11L-1473.1,168.4Zm260.105-4.125h0Z" transform="translate(1990.569 0.512)" stroke="rgba(0,0,0,0)" stroke-miterlimit="10" stroke-width="1" fill="url(#linear-gradient)"/>
</svg>
