<svg xmlns="http://www.w3.org/2000/svg" xmlns:xlink="http://www.w3.org/1999/xlink" width="113.322" height="72.416" viewBox="0 0 113.322 72.416">
  <defs>
    <clipPath id="clip-path">
      <path id="Trazado_116" data-name="Trazado 116" d="M105.636,665.025c-8.938,1.872-6.428,15.022,2.489,13.552a6.889,6.889,0,1,0-2.489-13.552m30.7.057a6.816,6.816,0,0,0-5.236,8.173,6.9,6.9,0,1,0,13.476-2.949A6.816,6.816,0,0,0,136.336,665.083Zm9.508-18.528c-5.725,1.564-3.236,10.279,2.455,8.623C153.893,653.547,151.64,644.972,145.844,646.554Zm8.463-8.017c-5.914.88-4.543,9.774,1.364,8.869C161.476,646.518,160.089,637.678,154.306,638.537Zm7.236,8.056c-5.817,1.853-2.935,10.348,2.687,8.531C169.744,653.345,167.185,644.8,161.543,646.593Zm-7.769,7.872A4.345,4.345,0,0,0,150.639,660a4.475,4.475,0,0,0,5.528,3.057C161.892,661.47,159.366,652.688,153.774,654.466ZM111.267,657.7a28.563,28.563,0,0,0,5.326.089l.039-2.508a32.174,32.174,0,0,0-5.344.094Zm16.873.08,5.3.037.074-2.533-5.353-.018Zm-44.452-9.762c-5.672.384-6.251-1.318-6.247,4.03,0,4.745.1,4.086,6.2,4.1.122,1.206-.138,4.09.119,4.956.464,1.559,2.333,1.272,3.962,1.272,5.243,0,3.773-.468,4.095-6.219a35.1,35.1,0,0,0,5-.133c1.463-.487,1.219-2.276,1.219-3.98,0-5.181-.537-3.714-6.249-4.019.168-6.465.271-6.228-4.063-6.228-1.727,0-3.436-.3-3.925,1.208A33.641,33.641,0,0,0,83.688,648.022Zm7.184-18.946c-6.908.629-14,4.536-17.371,10.458-3.569,6.276-4.148,14.434-5.479,22.258-1.233,7.243-2.558,18.03-2.237,25.441.175,4.012,1.192,7.93,3.254,10.52,1.989,2.5,5.459,4.733,9.955,2.859,6.586-2.742,7.87-11.512,11.333-16.383a9.19,9.19,0,0,1,3.821-2.972,4.889,4.889,0,0,1,5.48.184c4.763,3.4,10.509,3.337,15.348-.6a12.522,12.522,0,0,0,2.963-4.005,4.959,4.959,0,0,1,8.775-.211c1.773,3.167,3.557,5.4,7.31,6.639,9.186,3.029,10.943-4.954,16.388-2.12a9.591,9.591,0,0,1,3.978,2.983c3.589,4.8,4.536,13.428,11.29,16.432,3.909,1.736,7.34.383,9.813-2.54,4.761-5.626,3.642-15.506,2.871-23.606-.772-8.075-2.03-16.321-3.486-24.205-1.353-7.347-3.89-13.462-10.247-17.442-12.514-7.836-23.544-1.314-24.593-1.2l-34.65.014C103.02,631.563,99.757,628.265,90.872,629.076Z" transform="translate(-65.736 -628.908)" fill="#76fa00" clip-rule="evenodd"/>
    </clipPath>
  </defs>
  <g id="Grupo_27" data-name="Grupo 27" transform="translate(-65.736 -628.908)">
    <g id="Grupo_26" data-name="Grupo 26" transform="translate(65.736 628.908)" clip-path="url(#clip-path)">
      <rect id="Rectángulo_29" data-name="Rectángulo 29" width="114.79" height="77.562" transform="translate(-0.273 -3.984)" fill="#76fa00"/>
    </g>
  </g>
</svg>
