<svg xmlns="http://www.w3.org/2000/svg" width="71.171" height="92.39" viewBox="0 0 71.171 92.39">
  <g id="Grupo_16" data-name="Grupo 16" transform="translate(-66.852 -205.894)">
    <path id="Trazado_74" data-name="Trazado 74" d="M79.526,237.61c-.081.277.344.177.639.177s.582-.058.787-.058l-.332-3.2-1.609.412A2.8,2.8,0,0,1,79.526,237.61Z" transform="translate(6.538 8.763)" fill="none"/>
    <g id="Grupo_15" data-name="Grupo 15" transform="translate(66.852 205.894)">
      <path id="Trazado_75" data-name="Trazado 75" d="M77.613,264.675l-2.8.341a7.13,7.13,0,0,0,.551,3.536l2.631.21Z" transform="translate(-61.425 -193.155)" fill="none"/>
      <path id="Trazado_76" data-name="Trazado 76" d="M80.381,257.065c-.874-.663-1.54-1.447-2.361-2.046-1.245.819-1.641,3-1.964,4.625l6.8-.214A10.2,10.2,0,0,0,80.381,257.065Z" transform="translate(-60.782 -197.953)" fill="none"/>
      <path id="Trazado_77" data-name="Trazado 77" d="M84.724,265.96l.543,5.164,4.184.006-.049-5.557Z" transform="translate(-56.476 -192.709)" fill="none"/>
      <path id="Trazado_78" data-name="Trazado 78" d="M89.448,261.868l-4.991.387L84.7,266.7l4.607-.317Z" transform="translate(-56.608 -194.55)" fill="none"/>
      <path id="Trazado_79" data-name="Trazado 79" d="M78.522,273.991c1.449.046,3.769.187,4.883-.4.707-.982.777-3.583.823-5.076l-6.167-.154Z" transform="translate(-59.786 -191.321)" fill="none"/>
      <path id="Trazado_80" data-name="Trazado 80" d="M85.771,275.585l3.441,0,.01-5.428-4.06-.033Z" transform="translate(-56.259 -190.447)" fill="none"/>
      <path id="Trazado_81" data-name="Trazado 81" d="M78.107,268.875l6.266.385c.641-1.253.736-3.551.877-5.109l-7.415.662Z" transform="translate(-59.899 -193.416)" fill="none"/>
      <path id="Trazado_82" data-name="Trazado 82" d="M75.414,268.318c.106,1.1.768,5.169,1.437,6.136l1.742-.2c0-1.835-.06-4.528-.8-5.766Z" transform="translate(-61.102 -191.345)" fill="none"/>
      <path id="Trazado_83" data-name="Trazado 83" d="M81.712,258.669c.043.09.2.359.242.436l.677-6.847a4.719,4.719,0,0,0-2.9.633c.3,1.108.7,2.145,1.123,3.33Z" transform="translate(-58.956 -199.33)" fill="none"/>
      <path id="Trazado_84" data-name="Trazado 84" d="M84.119,247.222c-.15-1.4-.325-2.744-1.26-3.329l-1.515,3.245Z" transform="translate(-58.155 -203.48)" fill="none"/>
      <path id="Trazado_85" data-name="Trazado 85" d="M82.3,252.244l-.5,7.917a33.312,33.312,0,0,0,6.945-4.167C87.559,254.169,85.562,251.726,82.3,252.244Z" transform="translate(-57.928 -199.366)" fill="none"/>
      <path id="Trazado_86" data-name="Trazado 86" d="M89.609,258.7l-.858-3.314-6,3.568Z" transform="translate(-57.457 -197.768)" fill="none"/>
      <path id="Trazado_87" data-name="Trazado 87" d="M82.335,236.767a11.5,11.5,0,0,0-.322-2.718l-1.654.392.412,3.546C82.241,237.823,82.273,237.942,82.335,236.767Z" transform="translate(-58.645 -208.371)" fill="none"/>
      <path id="Trazado_88" data-name="Trazado 88" d="M79.526,237.61c-.081.277.344.177.639.177s.582-.058.787-.058l-.332-3.2-1.609.412A2.8,2.8,0,0,1,79.526,237.61Z" transform="translate(-59.314 -208.132)" fill="none"/>
      <path id="Trazado_89" data-name="Trazado 89" d="M79.567,247.221l1.934.075a6.793,6.793,0,0,0-1.226-3.708A4.975,4.975,0,0,0,79.567,247.221Z" transform="translate(-59.102 -203.632)" fill="none"/>
      <path id="Trazado_90" data-name="Trazado 90" d="M80.16,253.171A3.919,3.919,0,0,0,77.7,255.6c2.1,1.112,3.459,3.2,4.9,3.965Z" transform="translate(-59.965 -198.871)" fill="none"/>
      <path id="Trazado_91" data-name="Trazado 91" d="M92.582,272.728l4.756.675.239-5.011-5.073-.268Z" transform="translate(-52.611 -191.442)" fill="none"/>
      <path id="Trazado_92" data-name="Trazado 92" d="M96.943,269.555l3.459.061.662-6.365-3.9.077Z" transform="translate(-50.405 -193.863)" fill="none"/>
      <path id="Trazado_93" data-name="Trazado 93" d="M96.73,273.379l3.187.4.557-5.394-3.461-.064Z" transform="translate(-50.511 -191.342)" fill="none"/>
      <path id="Trazado_94" data-name="Trazado 94" d="M102.223,240.8l.368-.326a5.758,5.758,0,0,0-3.886-3.727,16.9,16.9,0,0,0-.992,3.348c-.373,1.467-.483,2.792-1.347,3.709l1.808-7.528c-1.305-.138-1.718-.43-3.009-.034l-.162.533c-.028.213-.049.358-.069.476l0,.066c-.006.424.784,5.685,1.492,6.685.145.205.376.43.4.464l5.216-3.51C102.094,240.908,102.173,240.839,102.223,240.8Z" transform="translate(-51.404 -207.382)" fill="none"/>
      <path id="Trazado_95" data-name="Trazado 95" d="M97.107,264.078l4.445.214,1.006-20.03-5.769.049Z" transform="translate(-50.482 -203.297)" fill="none"/>
      <path id="Trazado_96" data-name="Trazado 96" d="M96.632,243.159l6.764.286-1.1-4.041A34.614,34.614,0,0,0,96.632,243.159Z" transform="translate(-50.56 -205.711)" fill="none"/>
      <path id="Trazado_97" data-name="Trazado 97" d="M94.961,237.072c.028-2.012-.2,1.211,0,0Z" transform="translate(-51.43 -207.206)" fill="none"/>
      <path id="Trazado_98" data-name="Trazado 98" d="M92.268,263.122l.207,6.32,5.219.12c0-1.917.515-4.534.117-6.272Z" transform="translate(-52.728 -193.927)" fill="none"/>
      <path id="Trazado_99" data-name="Trazado 99" d="M95.438,236.448a3.907,3.907,0,0,0-2.763,2.25l4.037,5.121Z" transform="translate(-52.526 -207.179)" fill="none"/>
      <path id="Trazado_100" data-name="Trazado 100" d="M88.48,275.531l2.337-.03.375-5.3-2.782-.125Z" transform="translate(-54.644 -190.474)" fill="none"/>
      <path id="Trazado_101" data-name="Trazado 101" d="M88.54,271.251l2.629.048.262-5.942-3.02.266Z" transform="translate(-54.644 -192.816)" fill="none"/>
      <path id="Trazado_102" data-name="Trazado 102" d="M88.25,266.434l3.325-.342.1-4.515-3.292.345Z" transform="translate(-54.724 -194.694)" fill="none"/>
      <path id="Trazado_103" data-name="Trazado 103" d="M97.054,263.938l.149-19.461-5.191-.569.462,19.835Z" transform="translate(-52.855 -203.473)" fill="none"/>
      <path id="Trazado_104" data-name="Trazado 104" d="M92.813,238.446c-.968,1.051-1.236,3.145-1.172,4.824l5.074.186A29.553,29.553,0,0,0,92.813,238.446Z" transform="translate(-53.044 -206.187)" fill="none"/>
      <path id="Trazado_105" data-name="Trazado 105" d="M137,303.555l-1.028-.166.019-2.45a9.637,9.637,0,0,0-.85-1.655l-1.153,1.379-.07,2.715a1.791,1.791,0,0,0-.751-.028l.043-2.479-.84-1.852-1.323,1.531-.16,2.944-1.642.148.927-9.638c.521-2.839.813.251,1.352-2.592-1.034-1.425-9.454-3.106-9.643-21.028l-.415-.214c-.519-.367-.871.111-.7-2.561l.549-11.922,3.178-.151.021-3.045c-3.515-1.338-4.038-1.566-5.74-4.053a24.622,24.622,0,0,1-3.284-6.454c-1.32-3.783-3.336-12.207-3.17-16.48,1.392-1.3,3.254-1.994,2.786-5a4.274,4.274,0,0,0-4.462-3.6,4.337,4.337,0,0,0-3.28,6.867c.736,1,1.287,1.058,2.248,1.738a67.957,67.957,0,0,1-3.479,16.2c-1,2.745-3.35,7.652-5.531,9.218-1.087.78-2.022,1.018-3.254,1.769l-.066,2.411,3.829.166,1.7,21.915c-1.771-2.889-2.78-7.417-3.5-11.163l-5.868.277a17.873,17.873,0,0,1,.726-4.83l2.91-.156c.2-2.164.35-1.172-.656-1.817-1.507-.964-2.254-.979-3.6-4.251a31.421,31.421,0,0,1-1.675-9.021L90.077,246c-.151-3.967-.681-3.345.7-3.94-1.052-.8-1.031.419-.936-1.45.055-1.063,1.124-1.446-.082-2.031-1.165-.564-.879.463-.753,1a3.626,3.626,0,0,1,.213,2.471l-1.816.476c-.214-1.29.165-2.742-.3-3.58-2.59.082.129,1.3-.286,3.157-.256,1.145.376.4-.97.916-.434-.359-.154.127-.437-.5-.4-.88-.115-1.133-.332-2.16l-.172-.518c-1.956.208-.925.751-.419,1.78.81,1.651.62,1.29-.4,2.087,0,0,2.126-.1,1.657,2.735l-.139.445c-.021.067-.069.148-.091.216-.714,2.23,1.673,9.553-3.435,12.922-1.426.94-1.437.364-1.491,1.976l3.241.027.671,4.746-4.773.338c-.983,2.338-.337,12.6-11.53,19.5-1.533.946-2.429.555-2.332,2.293,1.808.512,3.848-.03,5.736.124l4.977,20.091c2.63.428,8.575-.091,11.473-.207l23.225-.462c2.5,0,10.1.584,11.689-.091-.012-2,.115-1.423-1.88-1.638l-.148-1.67-1.365-.392.377-12.038a29.53,29.53,0,0,1,7.872.1l-1.007,15.94,1.843.187.44-3.643,1.9.033.015,3.149,1.609.04.1-3.277,1.349-.054.183,3.456h1.444l.024-3.492,1.314-.1ZM98,277.832l-6.858.253,6-3.567Zm-1.332-4.309a33.311,33.311,0,0,1-6.945,4.167l.5-7.917C93.486,269.255,95.483,271.7,96.672,273.522Zm-6.116-16.215c.936.585,1.111,1.934,1.26,3.329l-2.775-.084Zm-1.028,12.515-.677,6.847c-.045-.076-.2-.346-.243-.436l-.858-2.447c-.419-1.185-.823-2.223-1.123-3.33A4.718,4.718,0,0,1,89.527,269.822Zm-3.211-9.339a4.975,4.975,0,0,1,.708-3.633,6.793,6.793,0,0,1,1.226,3.708Zm2.9-17.911a11.5,11.5,0,0,1,.322,2.718c-.061,1.175-.094,1.055-1.564,1.22l-.412-3.546Zm-3.672,1.133,1.609-.412.332,3.2c-.205,0-.483.058-.787.058s-.72.1-.639-.177A2.8,2.8,0,0,0,85.549,243.705Zm.5,27.489,2.446,6.4c-1.444-.76-2.8-2.853-4.9-3.965A3.919,3.919,0,0,1,86.047,271.195Zm-2.956,2.766c.82.6,1.486,1.383,2.361,2.046a10.2,10.2,0,0,1,2.48,2.365l-6.8.214C81.45,276.959,81.846,274.779,83.091,273.961Zm-3.85,14.795,2.8-.341.383,4.086-2.631-.21A7.13,7.13,0,0,1,79.241,288.755ZM81.6,300c-.669-.967-1.331-5.034-1.437-6.136l2.378.169c.741,1.238.8,3.931.8,5.766Zm7.869-.834c-1.114.582-3.434.442-4.883.4l-.461-5.625,6.167.154C90.247,295.586,90.177,298.187,89.47,299.169Zm.856-6.43-6.266-.385-.272-4.062,7.415-.662C91.063,289.188,90.967,291.486,90.327,292.739ZM93.7,284.6l4.992-.386-.139,4.516-4.607.317Zm5.1,17.435H95.364l-.609-5.459,4.061.033Zm-4.163-6.725-.542-5.164,4.678-.388.048,5.558Zm7.382,6.613-2.337.03-.069-5.459,2.781.126Zm.352-6.543-2.628-.049-.129-5.627,3.021-.266Zm.326-7.086-3.324.341.129-4.513,3.292-.344Zm6.062-42.13,1.274,7.37L106,248.413A3.907,3.907,0,0,1,108.765,246.163Zm-3.143,2.991a29.551,29.551,0,0,1,3.9,5.01l-5.074-.186C104.385,252.3,104.653,250.2,105.621,249.154ZM110.2,257.9l-.15,19.462-4.579-.195-.463-19.836Zm.379,40.958-4.755-.675-.078-4.606,5.073.269Zm.239-6.327-5.219-.12-.207-6.32,5.543.168C111.333,288,110.814,290.612,110.818,292.529Zm.055-39.018c-.708-1-1.5-6.261-1.492-6.685l0-.066c-.2,1.211.028-2.012,0,0,.019-.118.04-.263.069-.476l.162-.533c1.29-.4,1.7-.1,3.009.034l-1.808,7.528c.864-.918.974-2.242,1.347-3.709a16.9,16.9,0,0,1,.992-3.348,5.758,5.758,0,0,1,3.886,3.727l-.368.326c-.049.042-.129.111-.184.156l-5.216,3.51C111.249,253.941,111.019,253.716,110.874,253.511Zm4.384,45.824-3.187-.4.283-5.053,3.461.063Zm.593-6.686-3.461-.061.225-6.227,3.9-.078Zm1.072-14.759-4.444-.214-.319-19.767,5.769-.048Zm-5-23.548a34.614,34.614,0,0,1,5.667-3.756l1.1,4.041Z" transform="translate(-65.852 -216.894)" fill="#76fa00"/>
    </g>
    <path id="Trazado_106" data-name="Trazado 106" d="M94.961,237.072c.028-2.012-.2,1.211,0,0Z" transform="translate(14.422 9.688)" fill="#98ff00"/>
  </g>
</svg>
