<svg xmlns="http://www.w3.org/2000/svg" xmlns:xlink="http://www.w3.org/1999/xlink" width="41.611" height="44.312" viewBox="0 0 41.611 44.312">
  <defs>
    <linearGradient id="linear-gradient" x1="0.563" y1="-0.139" x2="0.472" y2="0.829" gradientUnits="objectBoundingBox">
      <stop offset="0" stop-color="#ffa400"/>
      <stop offset="1" stop-color="#ffb500"/>
    </linearGradient>
    <linearGradient id="linear-gradient-2" x1="0.46" y1="1.282" x2="0.501" y2="0.519" gradientUnits="objectBoundingBox">
      <stop offset="0.067" stop-color="#ff4d00"/>
      <stop offset="0.637" stop-color="#ffa400"/>
      <stop offset="0.918" stop-color="#ffcb00"/>
    </linearGradient>
    <linearGradient id="linear-gradient-3" x1="0.485" y1="1.238" x2="0.525" y2="-0.069" gradientUnits="objectBoundingBox">
      <stop offset="0" stop-color="#ffce3b"/>
      <stop offset="1" stop-color="#ff5923"/>
    </linearGradient>
    <linearGradient id="linear-gradient-4" x1="1.256" y1="-0.264" x2="-0.245" y2="1.018" gradientUnits="objectBoundingBox">
      <stop offset="0" stop-color="#f2de6d"/>
      <stop offset="1"/>
    </linearGradient>
  </defs>
  <g id="Grupo_5" data-name="Grupo 5" transform="translate(0 2.326)">
    <g id="Grupo_3" data-name="Grupo 3">
      <path id="Trazado_1" data-name="Trazado 1" d="M1740.358,1131.628a14.892,14.892,0,0,1-.157,2.526,15.78,15.78,0,0,1-2.009,5.885.049.049,0,0,1-.016.032c-4.394,7.548-14.672,11.141-23.46,8.851a21.366,21.366,0,0,1-12.929-10.121c-.22-.361-.425-.754-.612-1.13a21.932,21.932,0,0,1-2.4-9.008,18.1,18.1,0,0,1,.173-3.561c.032-.33.094-.644.142-.957a17.594,17.594,0,0,1,.769-2.731,21.34,21.34,0,0,1,7.266-9.306c1.02-.769,2.071-1.49,3.154-2.15,6.23-3.751,13.918-2.73,19.8,1.208a22.2,22.2,0,0,1,8.3,10.295c.158.376.3.768.44,1.161.032.078.063.157.094.251.094.3.188.6.283.911.126.408.235.831.329,1.255.047.157.078.314.11.471.047.157.078.329.11.486.031.172.063.345.109.518.032.236.079.487.126.738v.063l.094.612a.234.234,0,0,0,.016.11l.094.8c0,.048.016.094.016.126C1740.294,1129.839,1740.342,1130.734,1740.358,1131.628Z" transform="translate(-1698.749 -1107.618)" fill="url(#linear-gradient)"/>
      <path id="Trazado_2" data-name="Trazado 2" d="M1735.48,1139.047a29.691,29.691,0,0,1-2.148,2.6l-.182.193a9.407,9.407,0,0,0,1.167-1.862,21.941,21.941,0,0,0,.993-2.012,11.147,11.147,0,0,0,.76-2.077,8.593,8.593,0,0,0-.058-1.478,11.4,11.4,0,0,1,.292-1.644,5.789,5.789,0,0,0,.03-1.087,23.384,23.384,0,0,0-.152-2.342,20.116,20.116,0,0,0-1.067-4.554c-.031-.089-.065-.177-.1-.265-1.773-4.582-5.617-8.505-10.4-9.619a16.767,16.767,0,0,0-10.592,1.444c-.408.173-.815.376-1.208.58a34.818,34.818,0,0,0-4.52,2.872c-1.412,1.036-2.714,2.26-4.174,3.232a2.827,2.827,0,0,1-2.291.55,2.718,2.718,0,0,1-1.522-1.538c-.109-.2-.2-.408-.3-.628a21.342,21.342,0,0,1,7.265-9.306c1.02-.769,2.071-1.49,3.155-2.15,6.23-3.751,13.918-2.73,19.8,1.208a22.314,22.314,0,0,1,3.767,3.177,22.025,22.025,0,0,1,2.446,3.1,26.114,26.114,0,0,1,4.014,11.736,5.851,5.851,0,0,1-.521,3.357,3.814,3.814,0,0,1-.883,1.058,1.2,1.2,0,0,0-.278.268c-.982,1.381-1.722,2.912-2.68,4.319Q1735.795,1138.619,1735.48,1139.047Z" transform="translate(-1698.899 -1107.618)" fill="#ffdf80"/>
      <path id="Trazado_3" data-name="Trazado 3" d="M1737.467,1132.085a13.538,13.538,0,0,1-.125,2.134,13.378,13.378,0,0,1-1.679,4.959.054.054,0,0,1-.016.031c-3.4,5.853-10.937,8.881-17.874,7.846-.015,0-.031-.016-.062-.016a13.558,13.558,0,0,1-1.773-.361,17.589,17.589,0,0,1-9.7-6.778,16.113,16.113,0,0,1-1.145-1.758c-.188-.314-.361-.628-.518-.957a18.478,18.478,0,0,1-2.025-7.595,17.62,17.62,0,0,1,.141-3c.047-.283.078-.55.142-.815.785-4.269,3.452-7.6,6.732-10.138a29.627,29.627,0,0,1,2.652-1.82,13.162,13.162,0,0,1,4.268-1.679,16.417,16.417,0,0,1,12.366,2.7,18.806,18.806,0,0,1,6.967,8.678c.126.329.251.643.361.988.032.063.047.126.078.2.078.251.157.518.235.769a5.108,5.108,0,0,1,.173.674c0,.016.016.032.016.048a2.379,2.379,0,0,1,.094.329c.031.141.063.267.094.408.031.126.062.267.094.408.016.142.046.283.078.44.032.188.078.409.11.612v.064c.031.173.063.329.094.518v.094c.031.219.047.454.078.675,0,.031.016.063.016.11.031.36.063.737.094,1.114C1737.451,1131.347,1737.467,1131.724,1737.467,1132.085Z" transform="translate(-1699.201 -1108.122)" fill="url(#linear-gradient-2)"/>
      <path id="Trazado_4" data-name="Trazado 4" d="M1737.436,1130.971c-5.665,4.033-14.845,5.743-22.911,4.237a25.024,25.024,0,0,1-11.973-5.618,17.62,17.62,0,0,1,.141-3c.047-.283.078-.55.142-.815.785-4.269,3.452-7.6,6.732-10.138a29.627,29.627,0,0,1,2.652-1.82c5.226-3.169,11.691-2.306,16.634,1.021a18.806,18.806,0,0,1,6.967,8.678c.126.329.251.643.361.988.032.063.047.126.078.2.078.251.157.518.235.769.11.345.2.706.283,1.051.031.141.063.267.094.408.031.126.062.267.094.408.016.142.046.283.078.44.032.188.078.409.11.612v.064c.031.173.063.329.094.518v.094c.031.219.047.454.078.675,0,.031.016.063.016.11C1737.372,1130.218,1737.4,1130.594,1737.436,1130.971Z" transform="translate(-1699.201 -1108.122)" fill="url(#linear-gradient-3)"/>
      <path id="Trazado_5" data-name="Trazado 5" d="M1737.168,1126.153a6.883,6.883,0,0,1-.439-1.255,3.3,3.3,0,0,0-.754-1.6,1.421,1.421,0,0,0-1.616-.392,2.113,2.113,0,0,0-.769.847c-.973,1.6-1.774,3.28-2.731,4.881a48.074,48.074,0,0,1-13.4,14.5,4.342,4.342,0,0,0-1.381,1.287,1.563,1.563,0,0,0-.2,1.208c.141.612.895.926,1.413,1.114.3.109.612.2.925.3a13.558,13.558,0,0,1-1.773-.361,17.589,17.589,0,0,1-9.7-6.778,2.477,2.477,0,0,0,1.4.125,4.944,4.944,0,0,0,2.2-1.443,57.686,57.686,0,0,0,10.922-13.667,15.885,15.885,0,0,0,1.867-5.038,7.314,7.314,0,0,0-1-5.194,2.8,2.8,0,0,0-.895-.927c-.125-.062-.267-.094-.408-.173-.44-.219-.831-.5-1.287-.706a8.969,8.969,0,0,0-2.542-.737,16.417,16.417,0,0,1,12.366,2.7,18.806,18.806,0,0,1,6.967,8.678c.126.329.251.643.361.988.032.063.047.126.078.2.078.251.157.518.235.769A5.127,5.127,0,0,1,1737.168,1126.153Z" transform="translate(-1699.703 -1108.122)" fill="url(#linear-gradient-4)" style="mix-blend-mode: screen;isolation: isolate"/>
    </g>
    <text id="_" data-name="?" transform="translate(15.906 32.674)" fill="#5b2806" font-size="32" font-family="SegoeUI, Segoe UI"><tspan x="0" y="0">?</tspan></text>
  </g>
</svg>
