<svg xmlns="http://www.w3.org/2000/svg" width="95.318" height="70.001" viewBox="0 0 95.318 70.001">
  <g id="Grupo_17" data-name="Grupo 17" transform="translate(-68.119 -340.187)">
    <path id="Trazado_107" data-name="Trazado 107" d="M92.625,380.591c1.557.751,2.055,1.423,4.355,2.068a15.583,15.583,0,0,0,19.826-12.67,17.132,17.132,0,0,0-.261-5.856c-.028-.136-.061-.274-.1-.414,3.322-3.127,6.406-7.882,5.165-11.594-1.621-4.86-7.379-7.263-6.016-9.566,3.75-6.336-5.854,1.633-2.132,5.207,4.066,3.905,2.013,7.441-1.048,9.238-5.816-5.95-14.462-7.329-21.754-.577-.189.176-.373.356-.554.537-3.023-1.809-5.014-5.322-.978-9.2,3.723-3.574-5.882-11.543-2.13-5.207,1.364,2.3-4.4,4.707-6.018,9.566-1.237,3.706,1.833,8.449,5.144,11.575C84.524,369.667,87.052,376.166,92.625,380.591Z" transform="translate(14.112 0)" fill="#76fa00"/>
    <path id="Trazado_108" data-name="Trazado 108" d="M111.138,360.759a19.474,19.474,0,0,1-10.025,2.072c.395,1.413,1.593,1.777,2.883,3.407,4.919,6.213,4.87,12.281,4.647,19.841,2.948.384,7.583.112,10.727.112,6.529,0,7.076,1.095,7.076-6.321C126.446,365.85,113.821,359.457,111.138,360.759Z" transform="translate(36.991 22.879)" fill="#76fa00"/>
    <path id="Trazado_109" data-name="Trazado 109" d="M88.565,375.628c4.117-.295,4.813-1.612,7.437-2.668-.995-1.862-2.153-2.594-3.392-5.014a17.694,17.694,0,0,1-1.7-10.347,15.536,15.536,0,0,1-5.676-10.79c-6.448,1.118-13,6.213-12.428,15.336A14.438,14.438,0,0,0,88.565,375.628Z" transform="translate(5.215 7.423)" fill="#76fa00"/>
    <path id="Trazado_110" data-name="Trazado 110" d="M114.248,348.966a13.069,13.069,0,0,0-7.121-2.261,15.6,15.6,0,0,1-5.4,10.756,16.21,16.21,0,0,1-2.7,12.627,17.266,17.266,0,0,0-1.769,2.291c2.388,3.237,9.98,4.437,15.272,2.121C122.788,370.012,124.1,355.518,114.248,348.966Z" transform="translate(32.674 7.308)" fill="#76fa00"/>
    <path id="Trazado_111" data-name="Trazado 111" d="M90.862,365.137a8.061,8.061,0,0,0,1.867-2.144c-11.384-.284-7.473-4.522-13.348-1.309-5.683,3.11-10.411,8.468-11,15.192-.976,11.134.588,9.414,7.99,9.418,2.8,0,5.914.159,8.69-.032C84.726,378.513,85.192,370.669,90.862,365.137Z" transform="translate(0 22.758)" fill="#76fa00"/>
    <path id="Trazado_112" data-name="Trazado 112" d="M121.079,362.474c-7.239-4.353-4.488-1.186-12.243.091-7.9,1.3-14.621-2.859-16.549-2.337a15.824,15.824,0,0,0-1.875,1,25.5,25.5,0,0,0-8.841,7.592c-3.332,4.681-4.552,14.857-3.311,17.563,1.421,2.066,6.153,1.211,8.881,1.211,6.622,0,26.824.431,30.6-.108l10.3.121a6.8,6.8,0,0,0,1.551-.121c4.151-1.2.392-14.475-.263-15.794A24.152,24.152,0,0,0,121.079,362.474Z" transform="translate(10.836 22.418)" fill="#76fa00"/>
  </g>
</svg>
